<svg width="86" height="29" viewBox="0 0 86 29" fill="none" xmlns="http://www.w3.org/2000/svg">
<path d="M4 0.395876H6.46361C8.59246 0.395876 9.62812 1.72646 9.62812 4.14021C9.62812 6.55395 8.582 7.90103 6.46361 7.90103H4V0.395876ZM5.18734 1.44605V6.85086H6.33284C7.7451 6.85086 8.40939 5.95464 8.40939 4.1567C8.40939 2.34777 7.73987 1.44605 6.33284 1.44605H5.18734Z" fill="white"/>
<path d="M13.3837 1.99038C14.8273 1.99038 15.8368 2.97457 15.8368 4.60756V5.36082C15.8368 7.0488 14.8273 8 13.3837 8C11.9191 8 10.9201 7.05979 10.9201 5.36632V4.61306C10.9201 3.02406 11.9348 1.99038 13.3837 1.99038ZM13.3889 2.97457C12.5625 2.97457 12.0917 3.70034 12.0917 4.67354V5.32234C12.0917 6.29553 12.5311 7.01581 13.3889 7.01581C14.2363 7.01581 14.6704 6.30103 14.6704 5.32234V4.67354C14.6704 3.70034 14.2153 2.97457 13.3889 2.97457Z" fill="white"/>
<path d="M24.3627 2.08935L22.9086 7.90103H21.7265L20.5705 3.61237H20.5391L19.4041 7.90103H18.2168L16.6999 2.08935H17.95L18.8392 6.52096H18.8915L20.0056 2.08935H21.0988L22.2443 6.52096H22.2966L23.2015 2.08935H24.3627Z" fill="white"/>
<path d="M25.5134 7.90103V2.08935H26.6537V3.13402H26.7112C26.8525 2.67766 27.2552 2.00137 28.3746 2.00137C29.4887 2.00137 30.2367 2.65017 30.2367 3.97526V7.90103H29.0755V4.33265C29.0755 3.44742 28.6361 3.04055 27.9823 3.04055C27.1244 3.04055 26.6746 3.73333 26.6746 4.67354V7.90103H25.5134Z" fill="white"/>
<path d="M31.9941 7.90103V0H33.1553V7.90103H31.9941Z" fill="white"/>
<path d="M37.141 1.99038C38.5847 1.99038 39.5942 2.97457 39.5942 4.60756V5.36082C39.5942 7.0488 38.5847 8 37.141 8C35.6765 8 34.6774 7.05979 34.6774 5.36632V4.61306C34.6774 3.02406 35.6922 1.99038 37.141 1.99038ZM37.1463 2.97457C36.3198 2.97457 35.8491 3.70034 35.8491 4.67354V5.32234C35.8491 6.29553 36.2884 7.01581 37.1463 7.01581C37.9936 7.01581 38.4278 6.30103 38.4278 5.32234V4.67354C38.4278 3.70034 37.9727 2.97457 37.1463 2.97457Z" fill="white"/>
<path d="M42.6018 7.989C41.5295 7.989 40.792 7.29622 40.792 6.21306C40.792 5.18488 41.472 4.4921 42.7482 4.4921H44.1448V3.94777C44.1448 3.28247 43.742 2.96907 43.1039 2.96907C42.4762 2.96907 42.1938 3.24399 42.1049 3.62887H41.0012C41.0692 2.65567 41.7649 2.00137 43.1405 2.00137C44.3226 2.00137 45.3008 2.51821 45.3008 3.96426V7.90103H44.1971V7.14777H44.1448C43.899 7.59313 43.4177 7.989 42.6018 7.989ZM42.9627 7.0433C43.6217 7.0433 44.1448 6.57045 44.1448 5.93814V5.31134H42.9313C42.2566 5.31134 41.9584 5.66873 41.9584 6.15258C41.9584 6.75739 42.4396 7.0433 42.9627 7.0433Z" fill="white"/>
<path d="M48.8785 2.01237C49.6578 2.01237 50.2541 2.37526 50.4686 2.96357H50.5261V0H51.6873V7.90103H50.5575V6.97182H50.5C50.3326 7.56014 49.6683 7.97801 48.8628 7.97801C47.5918 7.97801 46.7653 7.0268 46.7653 5.49278V4.49759C46.7653 2.96357 47.6074 2.01237 48.8785 2.01237ZM49.2028 3.01306C48.4287 3.01306 47.9474 3.61787 47.9474 4.67354V5.31134C47.9474 6.37251 48.4339 6.97732 49.2289 6.97732C50.0135 6.97732 50.5261 6.37801 50.5261 5.38832V4.50859C50.5261 3.61237 49.9664 3.01306 49.2028 3.01306Z" fill="white"/>
<path d="M58.0634 1.99038C59.507 1.99038 60.5166 2.97457 60.5166 4.60756V5.36082C60.5166 7.0488 59.507 8 58.0634 8C56.5988 8 55.5998 7.05979 55.5998 5.36632V4.61306C55.5998 3.02406 56.6145 1.99038 58.0634 1.99038ZM58.0686 2.97457C57.2422 2.97457 56.7715 3.70034 56.7715 4.67354V5.32234C56.7715 6.29553 57.2108 7.01581 58.0686 7.01581C58.916 7.01581 59.3501 6.30103 59.3501 5.32234V4.67354C59.3501 3.70034 58.8951 2.97457 58.0686 2.97457Z" fill="white"/>
<path d="M62.0125 7.90103V2.08935H63.1528V3.13402H63.2103C63.3515 2.67766 63.7543 2.00137 64.8736 2.00137C65.9878 2.00137 66.7357 2.65017 66.7357 3.97526V7.90103H65.5745V4.33265C65.5745 3.44742 65.1352 3.04055 64.4813 3.04055C63.6235 3.04055 63.1737 3.73333 63.1737 4.67354V7.90103H62.0125Z" fill="white"/>
<path d="M71.2288 2.12784V0.676289H72.3638V2.12784H73.6035V3.08454H72.3638V6.16907C72.3638 6.80137 72.5888 6.97732 73.2112 6.97732C73.3681 6.97732 73.5773 6.96632 73.6663 6.95533V7.89003C73.5721 7.90653 73.1851 7.93952 72.9235 7.93952C71.5793 7.93952 71.2131 7.43368 71.2131 6.26804V3.08454H70.371V2.12784H71.2288Z" fill="white"/>
<path d="M75.0681 7.90103V0H76.224V3.13402H76.2816C76.4019 2.72165 76.8517 2.00137 77.9606 2.00137C79.0381 2.00137 79.807 2.65567 79.807 3.98076V7.90103H78.651V4.33814C78.651 3.45292 78.1855 3.04055 77.5264 3.04055C76.6948 3.04055 76.224 3.72783 76.224 4.67354V7.90103H75.0681Z" fill="white"/>
<path d="M83.7038 8C82.1974 8 81.2611 7.0268 81.2611 5.38832V4.60206C81.2611 2.95258 82.2863 1.99038 83.6358 1.99038C85.0219 1.99038 86 3.00206 86 4.60206V5.28385H82.4118V5.56976C82.4118 6.4055 82.8826 7.02131 83.6985 7.02131C84.3053 7.02131 84.7237 6.7189 84.8022 6.35601H85.9372C85.8692 7.0268 85.1945 8 83.7038 8ZM82.4118 4.4866H84.865V4.40962C84.865 3.5354 84.3785 2.95258 83.641 2.95258C82.9035 2.95258 82.4118 3.5354 82.4118 4.40962V4.4866Z" fill="white"/>
<path d="M6.211 25.5825H4L8.49858 12.2921H10.9297L15.4187 25.5825H13.1216L11.9634 21.9021H7.37872L6.211 25.5825ZM9.72372 14.5899H9.63758L7.86686 20.2079H11.4753L9.72372 14.5899Z" fill="white"/>
<path d="M21.5208 25.7285C20.2095 25.7285 19.214 25.0956 18.678 24.1512H18.6015V29H16.4766V15.291H18.544V16.8001H18.6206C19.1758 15.8167 20.2095 15.1546 21.5686 15.1546C23.837 15.1546 25.4546 16.8975 25.4546 19.9742V20.8895C25.4546 23.9467 23.8562 25.7285 21.5208 25.7285ZM21.0326 23.9467C22.3822 23.9467 23.301 22.8465 23.301 20.7726V20.0521C23.301 18.0561 22.4396 16.917 20.9943 16.917C19.5108 16.917 18.5823 18.1438 18.5823 20.0424V20.7726C18.5823 22.7199 19.5203 23.9467 21.0326 23.9467Z" fill="white"/>
<path d="M32.3224 25.7285C31.0111 25.7285 30.0157 25.0956 29.4797 24.1512H29.4031V29H27.2782V15.291H29.3456V16.8001H29.4222C29.9774 15.8167 31.0111 15.1546 32.3702 15.1546C34.6387 15.1546 36.2562 16.8975 36.2562 19.9742V20.8895C36.2562 23.9467 34.6578 25.7285 32.3224 25.7285ZM31.8342 23.9467C33.1838 23.9467 34.1027 22.8465 34.1027 20.7726V20.0521C34.1027 18.0561 33.2412 16.917 31.7959 16.917C30.3124 16.917 29.3839 18.1438 29.3839 20.0424V20.7726C29.3839 22.7199 30.3219 23.9467 31.8342 23.9467Z" fill="white"/>
<path d="M40.6596 21.8923H42.7844C42.8801 23.0412 43.8756 24.0246 45.7229 24.0246C47.417 24.0246 48.422 23.2165 48.422 21.9605C48.422 20.9479 47.752 20.4026 46.3546 20.0619L44.2106 19.5166C42.526 19.1174 41.0137 18.0951 41.0137 15.9336C41.0137 13.3923 43.196 12 45.7324 12C48.2689 12 50.3842 13.3923 50.432 15.8751H48.3454C48.2497 14.7457 47.3979 13.811 45.7037 13.811C44.2106 13.811 43.196 14.5315 43.196 15.768C43.196 16.6346 43.7894 17.2577 45.005 17.5401L47.1394 18.0756C49.1016 18.5624 50.5947 19.5069 50.5947 21.7657C50.5947 24.3751 48.5177 25.8454 45.5601 25.8454C41.923 25.8454 40.7074 23.6838 40.6596 21.8923Z" fill="white"/>
<path d="M53.184 15.291V12.7887H55.2706V15.291H57.2423V17.0241H55.2706V22.5155C55.2706 23.6352 55.6822 23.9467 56.8212 23.9467C57.003 23.9467 57.1753 23.9467 57.2998 23.9273V25.5825C57.1275 25.6117 56.7255 25.6506 56.2948 25.6506C53.8349 25.6506 53.1553 24.7549 53.1553 22.6907V17.0241H51.7579V15.291H53.184Z" fill="white"/>
<path d="M62.9806 15.1157C65.8904 15.1157 67.4696 17.1993 67.4696 20.0034V20.831C67.4696 23.7325 65.8999 25.7577 62.9806 25.7577C60.0614 25.7577 58.4725 23.7325 58.4725 20.831V20.0034C58.4725 17.209 60.0709 15.1157 62.9806 15.1157ZM62.9806 16.8488C61.4014 16.8488 60.6165 18.1632 60.6165 20.0326V20.8213C60.6165 22.6615 61.3918 24.0149 62.9806 24.0149C64.5695 24.0149 65.3352 22.6712 65.3352 20.8213V20.0326C65.3352 18.1535 64.5599 16.8488 62.9806 16.8488Z" fill="white"/>
<path d="M69.2645 25.5825V15.291H71.3894V16.6443H71.466C71.7244 16.0017 72.4805 15.1449 73.8875 15.1449C74.1651 15.1449 74.4044 15.1644 74.6054 15.2033V17.1117C74.4235 17.063 74.0502 17.0338 73.6961 17.0338C71.9924 17.0338 71.4181 18.1048 71.4181 19.4874V25.5825H69.2645Z" fill="white"/>
<path d="M79.7598 25.7577C77.0511 25.7577 75.3283 23.937 75.3283 20.8895V19.8477C75.3283 16.9754 77.0128 15.1157 79.6737 15.1157C82.3728 15.1157 84 17.0435 84 19.945V20.9284H77.4244V21.1718C77.4244 22.9049 78.3433 24.0538 79.7886 24.0538C80.8701 24.0538 81.6071 23.5086 81.8656 22.6226H83.8851C83.5789 24.2875 82.258 25.7577 79.7598 25.7577ZM77.4244 19.4192H81.923V19.3998C81.923 17.9393 81.0329 16.7904 79.6833 16.7904C78.3146 16.7904 77.4244 17.9393 77.4244 19.3998V19.4192Z" fill="white"/>
</svg>
