<svg width="221" height="68" viewBox="0 0 221 68" fill="none" xmlns="http://www.w3.org/2000/svg">
<path d="M7.25 50C6.15 50 5.3 49.7167 4.7 49.15C4.13333 48.55 3.85 47.7 3.85 46.6V18.15C3.85 17.05 4.13333 16.2167 4.7 15.65C5.3 15.05 6.15 14.75 7.25 14.75H19.25C21.7167 14.75 23.8167 15.1167 25.55 15.85C27.2833 16.5833 28.6 17.6333 29.5 19C30.4333 20.3667 30.9 22 30.9 23.9C30.9 26.0333 30.2833 27.8333 29.05 29.3C27.8167 30.7667 26.1333 31.75 24 32.25V31.5C26.4667 31.8667 28.3833 32.8 29.75 34.3C31.1167 35.8 31.8 37.75 31.8 40.15C31.8 43.2833 30.7333 45.7167 28.6 47.45C26.5 49.15 23.5667 50 19.8 50H7.25ZM10 45.15H19C21.2667 45.15 22.9333 44.7167 24 43.85C25.0667 42.95 25.6 41.6167 25.6 39.85C25.6 38.05 25.0667 36.7167 24 35.85C22.9333 34.9833 21.2667 34.55 19 34.55H10V45.15ZM10 29.7H18.15C20.35 29.7 21.9833 29.2833 23.05 28.45C24.15 27.5833 24.7 26.3167 24.7 24.65C24.7 22.9833 24.15 21.7333 23.05 20.9C21.9833 20.0333 20.35 19.6 18.15 19.6H10V29.7ZM46.0238 50.5C43.2572 50.5 41.1738 49.7167 39.7738 48.15C38.3738 46.55 37.6738 44.2167 37.6738 41.15V17.5C37.6738 16.4667 37.9405 15.6833 38.4738 15.15C39.0072 14.6167 39.7738 14.35 40.7738 14.35C41.7738 14.35 42.5405 14.6167 43.0738 15.15C43.6405 15.6833 43.9238 16.4667 43.9238 17.5V40.85C43.9238 42.3833 44.2405 43.5167 44.8738 44.25C45.5405 44.9833 46.4738 45.35 47.6738 45.35C47.9405 45.35 48.1905 45.35 48.4238 45.35C48.6572 45.3167 48.8905 45.2833 49.1238 45.25C49.5905 45.1833 49.9072 45.3167 50.0738 45.65C50.2405 45.95 50.3238 46.5833 50.3238 47.55C50.3238 48.3833 50.1572 49.0333 49.8238 49.5C49.4905 49.9667 48.9405 50.25 48.1738 50.35C47.8405 50.3833 47.4905 50.4167 47.1238 50.45C46.7572 50.4833 46.3905 50.5 46.0238 50.5ZM61.6906 50.5C59.924 50.5 58.3406 50.1667 56.9406 49.5C55.574 48.8 54.4906 47.8667 53.6906 46.7C52.924 45.5333 52.5406 44.2167 52.5406 42.75C52.5406 40.95 53.0073 39.5333 53.9406 38.5C54.874 37.4333 56.3906 36.6667 58.4906 36.2C60.5906 35.7333 63.4073 35.5 66.9406 35.5H69.4406V39.1H66.9906C64.924 39.1 63.274 39.2 62.0406 39.4C60.8073 39.6 59.924 39.95 59.3906 40.45C58.8906 40.9167 58.6406 41.5833 58.6406 42.45C58.6406 43.55 59.024 44.45 59.7906 45.15C60.5573 45.85 61.624 46.2 62.9906 46.2C64.0906 46.2 65.0573 45.95 65.8906 45.45C66.7573 44.9167 67.4406 44.2 67.9406 43.3C68.4406 42.4 68.6906 41.3667 68.6906 40.2V34.45C68.6906 32.7833 68.324 31.5833 67.5906 30.85C66.8573 30.1167 65.624 29.75 63.8906 29.75C62.924 29.75 61.874 29.8667 60.7406 30.1C59.6406 30.3333 58.474 30.7333 57.2406 31.3C56.6073 31.6 56.0406 31.6833 55.5406 31.55C55.074 31.4167 54.7073 31.15 54.4406 30.75C54.174 30.3167 54.0406 29.85 54.0406 29.35C54.0406 28.85 54.174 28.3667 54.4406 27.9C54.7073 27.4 55.1573 27.0333 55.7906 26.8C57.324 26.1667 58.7906 25.7167 60.1906 25.45C61.624 25.1833 62.924 25.05 64.0906 25.05C66.4906 25.05 68.4573 25.4167 69.9906 26.15C71.5573 26.8833 72.724 28 73.4906 29.5C74.2573 30.9667 74.6406 32.8667 74.6406 35.2V47.2C74.6406 48.2333 74.3906 49.0333 73.8906 49.6C73.3906 50.1333 72.674 50.4 71.7406 50.4C70.8073 50.4 70.074 50.1333 69.5406 49.6C69.0406 49.0333 68.7906 48.2333 68.7906 47.2V44.8H69.1906C68.9573 45.9667 68.4906 46.9833 67.7906 47.85C67.124 48.6833 66.274 49.3333 65.2406 49.8C64.2073 50.2667 63.024 50.5 61.6906 50.5ZM92.2844 50.5C89.7177 50.5 87.4844 49.9833 85.5844 48.95C83.6844 47.8833 82.2177 46.3833 81.1844 44.45C80.151 42.5167 79.6344 40.25 79.6344 37.65C79.6344 35.6833 79.9177 33.9333 80.4844 32.4C81.0844 30.8333 81.9344 29.5167 83.0344 28.45C84.1344 27.35 85.4677 26.5167 87.0344 25.95C88.601 25.35 90.351 25.05 92.2844 25.05C93.3844 25.05 94.5677 25.2 95.8344 25.5C97.1344 25.8 98.351 26.3 99.4844 27C100.018 27.3333 100.368 27.7333 100.534 28.2C100.701 28.6667 100.734 29.15 100.634 29.65C100.534 30.1167 100.318 30.5333 99.9844 30.9C99.6844 31.2333 99.301 31.45 98.8344 31.55C98.3677 31.6167 97.851 31.5 97.2844 31.2C96.551 30.7667 95.801 30.45 95.0344 30.25C94.2677 30.0167 93.5344 29.9 92.8344 29.9C91.7344 29.9 90.7677 30.0833 89.9344 30.45C89.101 30.7833 88.3844 31.2833 87.7844 31.95C87.2177 32.5833 86.7844 33.3833 86.4844 34.35C86.1844 35.3167 86.0344 36.4333 86.0344 37.7C86.0344 40.1667 86.6177 42.1167 87.7844 43.55C88.9844 44.95 90.6677 45.65 92.8344 45.65C93.5344 45.65 94.251 45.55 94.9844 45.35C95.751 45.15 96.5177 44.8333 97.2844 44.4C97.851 44.1 98.351 44 98.7844 44.1C99.251 44.2 99.6344 44.4333 99.9344 44.8C100.234 45.1333 100.418 45.55 100.484 46.05C100.551 46.5167 100.484 46.9833 100.284 47.45C100.118 47.9167 99.7844 48.3 99.2844 48.6C98.1844 49.2667 97.0177 49.75 95.7844 50.05C94.551 50.35 93.3844 50.5 92.2844 50.5ZM107.668 50.4C106.668 50.4 105.902 50.1333 105.368 49.6C104.835 49.0333 104.568 48.2333 104.568 47.2V17.5C104.568 16.4667 104.835 15.6833 105.368 15.15C105.902 14.6167 106.668 14.35 107.668 14.35C108.668 14.35 109.435 14.6167 109.968 15.15C110.535 15.6833 110.818 16.4667 110.818 17.5V35.95H110.918L119.168 27.25C119.835 26.5833 120.418 26.0667 120.918 25.7C121.418 25.3333 122.102 25.15 122.968 25.15C123.835 25.15 124.485 25.3833 124.918 25.85C125.385 26.2833 125.618 26.8167 125.618 27.45C125.618 28.0833 125.318 28.7167 124.718 29.35L116.018 38.55V35.95L125.568 46.25C126.168 46.8833 126.435 47.5333 126.368 48.2C126.335 48.8333 126.068 49.3667 125.568 49.8C125.068 50.2 124.435 50.4 123.668 50.4C122.735 50.4 121.985 50.2167 121.418 49.85C120.885 49.4833 120.285 48.9333 119.618 48.2L110.918 39.1H110.818V47.2C110.818 49.3333 109.768 50.4 107.668 50.4Z" fill="#0F172B"/>
<path d="M146.6 50.5C143.833 50.5 141.75 49.7167 140.35 48.15C138.95 46.55 138.25 44.2167 138.25 41.15V17.5C138.25 16.4667 138.517 15.6833 139.05 15.15C139.583 14.6167 140.35 14.35 141.35 14.35C142.35 14.35 143.117 14.6167 143.65 15.15C144.217 15.6833 144.5 16.4667 144.5 17.5V40.85C144.5 42.3833 144.817 43.5167 145.45 44.25C146.117 44.9833 147.05 45.35 148.25 45.35C148.517 45.35 148.767 45.35 149 45.35C149.233 45.3167 149.467 45.2833 149.7 45.25C150.167 45.1833 150.483 45.3167 150.65 45.65C150.817 45.95 150.9 46.5833 150.9 47.55C150.9 48.3833 150.733 49.0333 150.4 49.5C150.067 49.9667 149.517 50.25 148.75 50.35C148.417 50.3833 148.067 50.4167 147.7 50.45C147.333 50.4833 146.967 50.5 146.6 50.5ZM157.317 50.35C156.317 50.35 155.55 50.05 155.017 49.45C154.483 48.85 154.217 48.0167 154.217 46.95V28.6C154.217 27.5 154.483 26.6667 155.017 26.1C155.55 25.5 156.317 25.2 157.317 25.2C158.317 25.2 159.083 25.5 159.617 26.1C160.183 26.6667 160.467 27.5 160.467 28.6V46.95C160.467 48.0167 160.2 48.85 159.667 49.45C159.133 50.05 158.35 50.35 157.317 50.35ZM157.317 20.55C156.15 20.55 155.233 20.2667 154.567 19.7C153.933 19.1 153.617 18.2833 153.617 17.25C153.617 16.1833 153.933 15.3667 154.567 14.8C155.233 14.2333 156.15 13.95 157.317 13.95C158.517 13.95 159.433 14.2333 160.067 14.8C160.7 15.3667 161.017 16.1833 161.017 17.25C161.017 18.2833 160.7 19.1 160.067 19.7C159.433 20.2667 158.517 20.55 157.317 20.55ZM170.061 50.4C169.061 50.4 168.294 50.1333 167.761 49.6C167.228 49.0333 166.961 48.2333 166.961 47.2V28.3C166.961 27.2667 167.228 26.4833 167.761 25.95C168.294 25.4167 169.044 25.15 170.011 25.15C170.978 25.15 171.728 25.4167 172.261 25.95C172.794 26.4833 173.061 27.2667 173.061 28.3V31.7L172.511 30.45C173.244 28.6833 174.378 27.35 175.911 26.45C177.478 25.5167 179.244 25.05 181.211 25.05C183.178 25.05 184.794 25.4167 186.061 26.15C187.328 26.8833 188.278 28 188.911 29.5C189.544 30.9667 189.861 32.8333 189.861 35.1V47.2C189.861 48.2333 189.594 49.0333 189.061 49.6C188.528 50.1333 187.761 50.4 186.761 50.4C185.761 50.4 184.978 50.1333 184.411 49.6C183.878 49.0333 183.611 48.2333 183.611 47.2V35.4C183.611 33.5 183.244 32.1167 182.511 31.25C181.811 30.3833 180.711 29.95 179.211 29.95C177.378 29.95 175.911 30.5333 174.811 31.7C173.744 32.8333 173.211 34.35 173.211 36.25V47.2C173.211 49.3333 172.161 50.4 170.061 50.4ZM197.909 50.25C197.176 50.25 196.559 50.05 196.059 49.65C195.592 49.2167 195.342 48.6667 195.309 48C195.309 47.3333 195.592 46.6333 196.159 45.9L204.259 35.9V38.85L196.659 29.5C196.059 28.7667 195.776 28.0667 195.809 27.4C195.842 26.7333 196.092 26.2 196.559 25.8C197.059 25.3667 197.676 25.15 198.409 25.15C199.176 25.15 199.809 25.2833 200.309 25.55C200.842 25.8167 201.326 26.2333 201.759 26.8L207.759 34.5H205.559L211.609 26.8C212.076 26.2333 212.559 25.8167 213.059 25.55C213.559 25.2833 214.176 25.15 214.909 25.15C215.676 25.15 216.292 25.3667 216.759 25.8C217.226 26.2333 217.459 26.7833 217.459 27.45C217.492 28.1167 217.209 28.8167 216.609 29.55L209.059 38.8V36L217.159 45.9C217.759 46.6 218.042 47.2833 218.009 47.95C217.976 48.6167 217.709 49.1667 217.209 49.6C216.742 50.0333 216.126 50.25 215.359 50.25C214.626 50.25 214.009 50.1167 213.509 49.85C213.009 49.5833 212.526 49.1667 212.059 48.6L205.559 40.4H207.659L201.209 48.6C200.776 49.1333 200.309 49.55 199.809 49.85C199.309 50.1167 198.676 50.25 197.909 50.25Z" fill="#FF6200"/>
</svg>
