<svg width="188" height="63" viewBox="0 0 188 63" fill="none" xmlns="http://www.w3.org/2000/svg">
<rect x="0.5" y="0.5" width="187" height="62" rx="31" fill="#242427"/>
<rect x="0.5" y="0.5" width="187" height="62" rx="31" stroke="#474747"/>
<path d="M30.8048 30.4617L21.0896 41.0059C21.0905 41.0078 21.0905 41.0106 21.0914 41.0125C21.3898 42.1574 22.4118 43 23.6254 43C24.1108 43 24.5662 42.8656 24.9567 42.6305L24.9877 42.6118L35.9229 36.1593L30.8048 30.4617Z" fill="#EA4335"/>
<path d="M40.633 28.6662L40.6239 28.6597L35.9027 25.8612L30.5839 30.7013L35.9219 36.1582L40.6175 33.3878C41.4406 32.9324 41.9999 32.045 41.9999 31.0223C41.9999 30.0052 41.4488 29.1225 40.633 28.6662Z" fill="#FBBC04"/>
<path d="M21.0894 20.9932C21.031 21.2135 21 21.4449 21 21.6838V40.3163C21 40.5552 21.031 40.7866 21.0903 41.0059L31.1386 30.7313L21.0894 20.9932Z" fill="#4285F4"/>
<path d="M30.8762 31L35.904 25.8594L24.9815 19.3836C24.5846 19.1401 24.1211 19.0001 23.6256 19.0001C22.412 19.0001 21.3882 19.8446 21.0898 20.9904C21.0898 20.9914 21.0889 20.9923 21.0889 20.9932L30.8762 31Z" fill="#34A853"/>
<path d="M59.7352 23.8489C59.7352 25.0521 59.3773 26.0107 58.6614 26.7246C57.8571 27.5749 56.7994 28 55.4883 28C54.2335 28 53.1717 27.5668 52.303 26.7005C51.4343 25.8342 51 24.7674 51 23.5C51 22.2326 51.4343 21.1658 52.303 20.2995C53.1717 19.4332 54.2335 19 55.4883 19C56.1237 19 56.7229 19.1123 57.286 19.3369C57.849 19.5615 58.3115 19.8783 58.6735 20.2874L57.8772 21.0816C57.6117 20.7607 57.2659 20.512 56.8396 20.3356C56.4213 20.1511 55.9709 20.0588 55.4883 20.0588C54.5472 20.0588 53.7509 20.3837 53.0993 21.0334C52.4559 21.6912 52.1341 22.5134 52.1341 23.5C52.1341 24.4866 52.4559 25.3088 53.0993 25.9666C53.7509 26.6163 54.5472 26.9412 55.4883 26.9412C56.3489 26.9412 57.0648 26.7005 57.6359 26.2193C58.207 25.738 58.5367 25.0762 58.6252 24.234H55.4883V23.1992H59.6749C59.7151 23.4238 59.7352 23.6404 59.7352 23.8489Z" fill="white"/>
<path d="M66.1272 19.1925V20.2513H62.1939V22.9826H65.7411V24.0174H62.1939V26.7487H66.1272V27.8075H61.0839V19.1925H66.1272Z" fill="white"/>
<path d="M70.5671 20.2513V27.8075H69.4571V20.2513H67.044V19.1925H72.9801V20.2513H70.5671Z" fill="white"/>
<path d="M77.8999 27.8075H76.7899V19.1925H77.8999V27.8075Z" fill="white"/>
<path d="M82.5852 20.2513V27.8075H81.4752V20.2513H79.0621V19.1925H84.9982V20.2513H82.5852Z" fill="white"/>
<path d="M97.0301 23.5C97.0301 24.7754 96.6038 25.8422 95.7512 26.7005C94.8905 27.5668 93.8368 28 92.5901 28C91.3353 28 90.2816 27.5668 89.429 26.7005C88.5764 25.8422 88.1501 24.7754 88.1501 23.5C88.1501 22.2246 88.5764 21.1578 89.429 20.2995C90.2816 19.4332 91.3353 19 92.5901 19C93.8449 19 94.8985 19.4372 95.7512 20.3115C96.6038 21.1698 97.0301 22.2326 97.0301 23.5ZM89.2842 23.5C89.2842 24.4947 89.5979 25.3168 90.2253 25.9666C90.8607 26.6163 91.649 26.9412 92.5901 26.9412C93.5312 26.9412 94.3154 26.6163 94.9428 25.9666C95.5782 25.3249 95.8959 24.5027 95.8959 23.5C95.8959 22.4973 95.5782 21.6751 94.9428 21.0334C94.3154 20.3837 93.5312 20.0588 92.5901 20.0588C91.649 20.0588 90.8607 20.3837 90.2253 21.0334C89.5979 21.6832 89.2842 22.5053 89.2842 23.5Z" fill="white"/>
<path d="M99.45 27.8075H98.34V19.1925H99.6913L103.89 25.8944H103.938L103.89 24.234V19.1925H105V27.8075H103.842L99.45 20.7807H99.4017L99.45 22.4412V27.8075Z" fill="white"/>
<path d="M120.954 44.6916H122.935V31.4778H120.954V44.6916ZM138.797 36.2375L136.526 41.9666H136.458L134.102 36.2375H131.968L135.502 44.2445L133.488 48.6987H135.553L141 36.2375H138.797ZM127.563 43.1906C126.913 43.1906 126.009 42.8682 126.009 42.0681C126.009 41.0491 127.135 40.658 128.109 40.658C128.979 40.658 129.39 40.8451 129.919 41.0998C129.765 42.3239 128.706 43.1906 127.563 43.1906ZM127.802 35.949C126.368 35.949 124.881 36.5779 124.268 37.9721L126.026 38.7025C126.402 37.9721 127.101 37.7332 127.836 37.7332C128.86 37.7332 129.902 38.3452 129.919 39.434V39.5693C129.56 39.3653 128.792 39.0598 127.853 39.0598C125.958 39.0598 124.028 40.0967 124.028 42.0342C124.028 43.8026 125.582 44.9421 127.323 44.9421C128.655 44.9421 129.39 44.347 129.851 43.6494H129.919V44.6694H131.831V39.6031C131.831 37.2576 130.073 35.949 127.802 35.949ZM115.559 37.8463H112.742V33.317H115.559C117.04 33.317 117.881 34.5378 117.881 35.5811C117.881 36.6054 117.04 37.8463 115.559 37.8463ZM115.508 31.4778H110.762V44.6916H112.742V39.6855H115.508C117.704 39.6855 119.862 38.1021 119.862 35.5811C119.862 33.0601 117.704 31.4778 115.508 31.4778ZM89.625 43.1927C88.2565 43.1927 87.111 42.0522 87.111 40.4857C87.111 38.9023 88.2565 37.7438 89.625 37.7438C90.9764 37.7438 92.0359 38.9023 92.0359 40.4857C92.0359 42.0522 90.9764 43.1927 89.625 43.1927ZM91.9 36.9774H91.831C91.3862 36.45 90.5316 35.9733 89.454 35.9733C87.196 35.9733 85.1269 37.9478 85.1269 40.4857C85.1269 43.0056 87.196 44.9643 89.454 44.9643C90.5316 44.9643 91.3862 44.4876 91.831 43.9422H91.9V44.5901C91.9 46.3099 90.9764 47.2295 89.488 47.2295C88.2735 47.2295 87.5208 46.3606 87.213 45.6281L85.4857 46.3437C85.9815 47.536 87.299 49 89.488 49C91.814 49 93.7812 47.6375 93.7812 44.3174V36.2449H91.9V36.9774ZM95.1496 44.6916H97.1338V31.4767H95.1496V44.6916ZM100.058 40.3324C100.007 38.5957 101.409 37.71 102.418 37.71C103.205 37.71 103.872 38.1011 104.094 38.6634L100.058 40.3324ZM106.215 38.8336C105.839 37.8294 104.693 35.9733 102.35 35.9733C100.024 35.9733 98.0914 37.7945 98.0914 40.4688C98.0914 42.9887 100.007 44.9643 102.571 44.9643C104.642 44.9643 105.839 43.7043 106.335 42.9718L104.796 41.9497C104.283 42.6991 103.581 43.1927 102.571 43.1927C101.563 43.1927 100.844 42.7329 100.382 41.8313L106.42 39.3441L106.215 38.8336ZM58.115 37.3527V39.2596H62.698C62.5611 40.3324 62.2022 41.1157 61.6555 41.66C60.9877 42.3249 59.9442 43.0574 58.115 43.0574C55.2921 43.0574 53.0861 40.7922 53.0861 37.9827C53.0861 35.1721 55.2921 32.9079 58.115 32.9079C59.6374 32.9079 60.7489 33.5041 61.5695 34.2704L62.9209 32.9248C61.7744 31.835 60.2531 31 58.115 31C54.2496 31 51 34.1341 51 37.9827C51 41.8313 54.2496 44.9643 58.115 44.9643C60.2011 44.9643 61.7744 44.2825 63.0059 43.0056C64.2724 41.7457 64.6652 39.9752 64.6652 38.544C64.6652 38.1011 64.6312 37.6931 64.5622 37.3527H58.115ZM69.8767 43.1927C68.5083 43.1927 67.3277 42.0691 67.3277 40.4688C67.3277 38.8505 68.5083 37.7438 69.8767 37.7438C71.2441 37.7438 72.4246 38.8505 72.4246 40.4688C72.4246 42.0691 71.2441 43.1927 69.8767 43.1927ZM69.8767 35.9733C67.3787 35.9733 65.3436 37.8632 65.3436 40.4688C65.3436 43.0574 67.3787 44.9643 69.8767 44.9643C72.3736 44.9643 74.4088 43.0574 74.4088 40.4688C74.4088 37.8632 72.3736 35.9733 69.8767 35.9733ZM79.7636 43.1927C78.3951 43.1927 77.2146 42.0691 77.2146 40.4688C77.2146 38.8505 78.3951 37.7438 79.7636 37.7438C81.132 37.7438 82.3115 38.8505 82.3115 40.4688C82.3115 42.0691 81.132 43.1927 79.7636 43.1927ZM79.7636 35.9733C77.2666 35.9733 75.2315 37.8632 75.2315 40.4688C75.2315 43.0574 77.2666 44.9643 79.7636 44.9643C82.2605 44.9643 84.2956 43.0574 84.2956 40.4688C84.2956 37.8632 82.2605 35.9733 79.7636 35.9733Z" fill="white"/>
</svg>
