<svg width="154" height="97" viewBox="0 0 154 97" fill="none" xmlns="http://www.w3.org/2000/svg">
<path d="M69.1381 9.61317C64.4674 13.6757 56.9057 26.488 64.0246 45.2369C72.9232 68.673 55.1229 71.2812 37.8482 53.7422C24.0283 39.7109 10.8817 57.7596 6.03579 68.5378" stroke="#FF6200" stroke-width="4.44711" stroke-linecap="round"/>
<path d="M12.6618 68.0313C10.912 68.4886 6.87342 69.4062 4.7178 69.4189" stroke="#FF6200" stroke-width="4.44711" stroke-linecap="round"/>
<path d="M4.57501 69.2907C4.66645 67.3476 4.72486 62.864 4.22706 60.474" stroke="#FF6200" stroke-width="4.44711" stroke-linecap="round"/>
<g clip-path="url(#clip0_2415_33)">
<path d="M147.009 17.9289C143.629 13.1013 137.865 10.1146 131.547 10.5581C121.979 11.2298 114.765 19.512 115.435 29.0574C114.765 19.512 106.466 12.3187 96.8977 12.9903C90.3931 13.4469 84.98 17.421 82.3878 22.9162C81.5559 24.4405 79.3812 29.3447 81.2624 36.2775C84.8076 52.845 118.176 68.1048 118.176 68.1048C118.176 68.1048 147.903 49.0898 150.18 32.4171L150.183 32.4332C151.697 23.5137 147.365 18.3357 147.009 17.9289Z" fill="#FF6200"/>
<mask id="mask0_2415_33" style="mask-type:luminance" maskUnits="userSpaceOnUse" x="80" y="7" width="71" height="62">
<path d="M143.091 13.8792L143.087 13.8925C139.892 11.5632 135.887 10.3038 131.63 10.6026C129.08 10.7817 126.696 11.5025 124.586 12.6425C122.061 9.25483 117.918 7.18208 113.385 7.50022C109.026 7.8062 105.33 10.2523 103.253 13.7374C101.277 13.1374 99.1635 12.8816 96.9808 13.0348C92.7302 13.3332 88.9447 15.1346 86.1092 17.8807C86.1092 17.8807 77.156 25.5529 81.9556 38.4317C81.9837 38.5077 82.0117 38.582 82.0415 38.6578C82.0615 38.7116 82.0798 38.7639 82.1014 38.816C88.1688 54.3866 118.259 68.1477 118.259 68.1477C118.259 68.1477 146.156 50.3033 149.972 34.0292L149.986 34.0492C153.229 20.351 143.091 13.8792 143.091 13.8792Z" fill="white"/>
</mask>
<g mask="url(#mask0_2415_33)">
<path d="M94.1499 25.6571L94.1998 25.7412C94.2145 25.7662 94.2418 25.7837 94.2712 25.7849L94.3693 25.7926C94.4037 25.7951 94.4196 25.8362 94.397 25.8621L94.3321 25.9348C94.3126 25.9573 94.3049 25.9871 94.3118 26.0158L94.3347 26.11C94.3435 26.1435 94.3097 26.1718 94.2778 26.1578L94.1888 26.1186C94.162 26.1075 94.1312 26.1097 94.1062 26.1244L94.0236 26.1757C93.994 26.194 93.9565 26.1706 93.9606 26.1363L93.9701 26.0398C93.9729 26.0104 93.9612 25.982 93.9386 25.9625L93.8643 25.8995C93.8383 25.877 93.8483 25.8341 93.8819 25.8268L93.9781 25.8055C94.0069 25.7986 94.0315 25.779 94.0427 25.7522L94.0803 25.6619C94.0895 25.6305 94.1332 25.6274 94.1499 25.6571Z" fill="#FADB81"/>
<path d="M93.5303 25.8012L93.5599 25.8527C93.5691 25.8683 93.5861 25.8784 93.6042 25.8804L93.6646 25.8843C93.6859 25.8861 93.6958 25.9113 93.6823 25.9269L93.6415 25.972C93.6295 25.9858 93.6242 26.004 93.6287 26.0216L93.6426 26.0806C93.6473 26.1014 93.6274 26.1191 93.6073 26.1107L93.5519 26.087C93.5352 26.0801 93.5157 26.0814 93.5001 26.0906L93.4486 26.1219C93.4299 26.1329 93.4077 26.1182 93.4094 26.097L93.415 26.0366C93.417 26.0186 93.4092 26.0013 93.3954 25.9892L93.3521 25.9517C93.3365 25.9382 93.3427 25.9118 93.3636 25.9071L93.4229 25.8948C93.4405 25.8903 93.4559 25.8778 93.4629 25.8611L93.485 25.806C93.4918 25.786 93.5193 25.7841 93.5303 25.8012Z" fill="#FF7260"/>
<path d="M94.7302 25.717L94.7599 25.7685C94.7691 25.784 94.7861 25.7942 94.8041 25.7962L94.8646 25.8001C94.8859 25.8018 94.8958 25.8271 94.8822 25.8427L94.8415 25.8877C94.8294 25.9016 94.8242 25.9198 94.8287 25.9373L94.8426 25.9964C94.8473 26.0172 94.8274 26.0348 94.8073 26.0265L94.7519 26.0028C94.7351 25.9958 94.7157 25.9972 94.7001 26.0064L94.6486 26.0376C94.6298 26.0487 94.6076 26.034 94.6094 26.0128L94.6149 25.9523C94.6169 25.9343 94.6092 25.917 94.5953 25.905L94.552 25.8675C94.5364 25.854 94.5427 25.8275 94.5635 25.8228L94.6229 25.8105C94.6404 25.8061 94.6558 25.7936 94.6628 25.7769L94.685 25.7218C94.6933 25.7017 94.7192 25.6999 94.7302 25.717Z" fill="#FF7260"/>
</g>
<mask id="mask1_2415_33" style="mask-type:luminance" maskUnits="userSpaceOnUse" x="80" y="7" width="71" height="62">
<path d="M143.091 13.8792L143.087 13.8925C139.892 11.5632 135.887 10.3038 131.63 10.6026C129.08 10.7817 126.696 11.5025 124.586 12.6425C122.061 9.25483 117.918 7.18208 113.385 7.50022C109.026 7.8062 105.33 10.2523 103.253 13.7374C101.277 13.1374 99.1635 12.8816 96.9808 13.0348C92.7302 13.3332 88.9447 15.1346 86.1092 17.8807C86.1092 17.8807 77.156 25.5529 81.9556 38.4317C81.9837 38.5077 82.0117 38.582 82.0415 38.6578C82.0615 38.7116 82.0798 38.7639 82.1014 38.816C88.1688 54.3866 118.259 68.1477 118.259 68.1477C118.259 68.1477 146.156 50.3033 149.972 34.0292L149.986 34.0492C153.229 20.351 143.091 13.8792 143.091 13.8792Z" fill="white"/>
</mask>
<g mask="url(#mask1_2415_33)">
<path d="M97.7728 22.906C97.781 22.7918 97.7088 22.6898 97.6053 22.6532C97.6989 22.5963 97.7479 22.4825 97.7173 22.371C97.6867 22.2595 97.5841 22.1888 97.475 22.1883C97.5439 22.1023 97.5515 21.98 97.4863 21.8856C97.4195 21.7912 97.3001 21.759 97.1969 21.7955C97.2336 21.6923 97.1992 21.5729 97.105 21.5065C97.0108 21.4401 96.8861 21.4488 96.8015 21.5181C96.8019 21.4077 96.7297 21.3072 96.6185 21.276C96.5073 21.2449 96.3937 21.2951 96.3368 21.3884C96.3003 21.2854 96.1977 21.2147 96.0827 21.2227C96.0228 21.227 95.9708 21.2517 95.9296 21.2903C95.8793 21.2695 95.8202 21.2623 95.7628 21.2793C95.7053 21.2947 95.659 21.3304 95.6265 21.3765C95.6033 21.3717 95.5789 21.3717 95.5563 21.3733C95.6449 21.3152 95.6909 21.2048 95.6606 21.0982C95.63 20.9867 95.5274 20.916 95.4184 20.9155C95.4872 20.8295 95.4949 20.7072 95.4296 20.6128C95.3628 20.5184 95.2434 20.4862 95.1402 20.5227C95.1769 20.4195 95.1425 20.3001 95.0483 20.2337C94.9541 20.1672 94.8295 20.176 94.7448 20.2452C94.7452 20.1348 94.6731 20.0344 94.5618 20.0032C94.4506 19.9721 94.337 20.0222 94.2801 20.1155C94.2436 20.0126 94.141 19.9419 94.026 19.9499C93.9661 19.9541 93.9141 19.9789 93.8729 20.0175C93.8226 19.9967 93.7635 19.9895 93.7061 20.0065C93.6486 20.0219 93.6023 20.0576 93.5698 20.1037C93.5153 20.0929 93.4571 20.0986 93.4038 20.1267C93.3017 20.1793 93.2511 20.2933 93.2749 20.4004C93.177 20.3504 93.0545 20.3671 92.9759 20.4522C92.8972 20.5373 92.8879 20.6597 92.9449 20.7531C92.8923 20.7454 92.8394 20.7572 92.7922 20.78C92.7865 20.7674 92.7823 20.7547 92.7733 20.7424C92.7065 20.6481 92.5871 20.6159 92.4838 20.6523C92.5205 20.5491 92.4861 20.4298 92.392 20.3633C92.2978 20.2969 92.1731 20.3056 92.0885 20.3749C92.0889 20.2645 92.0167 20.164 91.9055 20.1329C91.7943 20.1017 91.6807 20.1519 91.6237 20.2452C91.5872 20.1422 91.4846 20.0715 91.3697 20.0796C91.3097 20.0838 91.2578 20.1085 91.2166 20.1471C91.1663 20.1263 91.1072 20.1191 91.0498 20.1361C90.9923 20.1515 90.946 20.1872 90.9134 20.2333C90.859 20.2226 90.8008 20.2283 90.7474 20.2564C90.6454 20.309 90.5948 20.4229 90.6186 20.53C90.5207 20.4801 90.3982 20.4968 90.3195 20.5818C90.2409 20.6669 90.2316 20.7893 90.2886 20.8827C90.1801 20.8676 90.0703 20.9256 90.024 21.0312C89.9777 21.1367 90.0121 21.256 90.0967 21.3248C89.9892 21.3469 89.9045 21.4389 89.8963 21.5531C89.888 21.6673 89.9603 21.7694 90.0637 21.806C89.9701 21.8629 89.9211 21.9767 89.9517 22.0882C89.9824 22.1997 90.085 22.2704 90.194 22.2708C90.179 22.2881 90.169 22.3083 90.1607 22.33C90.0675 22.3235 89.978 22.3688 89.9298 22.4485C89.8933 22.3455 89.7907 22.2748 89.6758 22.2829C89.6158 22.2871 89.5639 22.3118 89.5227 22.3504C89.4724 22.3296 89.4133 22.3224 89.3559 22.3394C89.2984 22.3548 89.2521 22.3905 89.2195 22.4366C89.1651 22.4258 89.1069 22.4316 89.0535 22.4596C88.9515 22.5123 88.9009 22.6262 88.9247 22.7333C88.8268 22.6834 88.7043 22.7001 88.6256 22.7851C88.547 22.8702 88.5377 22.9926 88.5947 23.086C88.4862 23.0709 88.3764 23.1289 88.3301 23.2344C88.2838 23.34 88.3182 23.4593 88.4028 23.528C88.2953 23.5502 88.2106 23.6422 88.2024 23.7564C88.1941 23.8706 88.2664 23.9727 88.3698 24.0092C88.2762 24.0661 88.2272 24.18 88.2578 24.2915C88.2885 24.4029 88.3911 24.4737 88.5001 24.4741C88.4313 24.5601 88.4236 24.6824 88.4888 24.7769C88.5556 24.8712 88.6751 24.9034 88.7783 24.8669C88.7416 24.9702 88.776 25.0895 88.8702 25.1559C88.9643 25.2224 89.089 25.2136 89.1737 25.1444C89.1733 25.2548 89.2454 25.3552 89.3566 25.3864C89.4678 25.4175 89.5815 25.3674 89.6384 25.2741C89.6749 25.377 89.7775 25.4478 89.8925 25.4397C89.9524 25.4355 90.0043 25.4107 90.0456 25.3721C90.0959 25.3929 90.1549 25.4002 90.2123 25.3831C90.2698 25.3677 90.3161 25.332 90.3487 25.2859C90.4032 25.2967 90.4613 25.291 90.5147 25.2629C90.6168 25.2103 90.6673 25.0963 90.6436 24.9892C90.7414 25.0392 90.8639 25.0225 90.9426 24.9374C91.0212 24.8523 91.0305 24.7299 90.9735 24.6365C91.082 24.6517 91.1918 24.5936 91.2381 24.4881C91.2844 24.3826 91.25 24.2632 91.1654 24.1945C91.2729 24.1723 91.3576 24.0804 91.3658 23.9662C91.3741 23.8519 91.3018 23.7499 91.1984 23.7133C91.292 23.6564 91.341 23.5426 91.3104 23.4311C91.2798 23.3196 91.1772 23.2489 91.0681 23.2484C91.0832 23.2311 91.0932 23.211 91.1014 23.1893C91.1946 23.1957 91.2842 23.1505 91.3323 23.0708C91.3688 23.1737 91.4714 23.2445 91.5864 23.2364C91.6463 23.2322 91.6982 23.2074 91.7395 23.1688C91.7897 23.1897 91.8488 23.1969 91.9062 23.1799C91.9637 23.1645 92.01 23.1287 92.0426 23.0826C92.0971 23.0934 92.1552 23.0877 92.2086 23.0596C92.3107 23.007 92.3612 22.893 92.3375 22.7859C92.4353 22.8359 92.5578 22.8192 92.6365 22.7341C92.7151 22.6491 92.7244 22.5266 92.6674 22.4332C92.72 22.4409 92.7729 22.4291 92.8201 22.4063C92.8259 22.4189 92.83 22.4316 92.8391 22.4439C92.9059 22.5383 93.0253 22.5705 93.1285 22.534C93.0918 22.6372 93.1262 22.7566 93.2204 22.823C93.3146 22.8894 93.4392 22.8807 93.5239 22.8114C93.5235 22.9219 93.5956 23.0223 93.7069 23.0535C93.8181 23.0846 93.9317 23.0344 93.9886 22.9411C94.0251 23.0441 94.1277 23.1148 94.2427 23.1068C94.3026 23.1025 94.3546 23.0778 94.3958 23.0392C94.4461 23.06 94.5052 23.0672 94.5626 23.0502C94.6201 23.0348 94.6664 22.9991 94.6989 22.953C94.7221 22.9578 94.7465 22.9578 94.7691 22.9562C94.6805 23.0143 94.6345 23.1247 94.6648 23.2313C94.6954 23.3428 94.798 23.4136 94.907 23.414C94.8382 23.5 94.8305 23.6223 94.8957 23.7168C94.9626 23.8111 95.082 23.8433 95.1852 23.8068C95.1701 23.8468 95.1698 23.8891 95.1776 23.9307C95.1658 23.9705 95.1606 24.0131 95.1684 24.0547C95.0705 24.0048 94.9481 24.0215 94.8694 24.1066C94.7908 24.1916 94.7815 24.3141 94.8385 24.4075C94.73 24.3923 94.6202 24.4504 94.5739 24.5559C94.5276 24.6614 94.562 24.7807 94.6465 24.8495C94.5391 24.8716 94.4544 24.9636 94.4462 25.0778C94.4379 25.1921 94.5102 25.2941 94.6136 25.3307C94.52 25.3876 94.471 25.5014 94.5016 25.6129C94.5322 25.7244 94.6348 25.7951 94.7439 25.7956C94.6751 25.8816 94.6674 26.0039 94.7326 26.0983C94.7994 26.1926 94.9188 26.2248 95.022 26.1884C94.9854 26.2916 95.0198 26.4109 95.1139 26.4774C95.1276 26.4862 95.141 26.4917 95.156 26.4972C95.1128 26.5083 95.072 26.529 95.0387 26.5654C94.9601 26.6505 94.9508 26.7729 95.0078 26.8663C94.8993 26.8512 94.7895 26.9092 94.7432 27.0148C94.6969 27.1203 94.7313 27.2396 94.8159 27.3084C94.7084 27.3305 94.6238 27.4225 94.6155 27.5367C94.6072 27.6509 94.6795 27.753 94.783 27.7896C94.6893 27.8465 94.6403 27.9603 94.671 28.0718C94.7016 28.1832 94.8042 28.254 94.9132 28.2544C94.8444 28.3404 94.8367 28.4627 94.9019 28.5572C94.9688 28.6515 95.0882 28.6837 95.1914 28.6472C95.1547 28.7505 95.1891 28.8698 95.2833 28.9362C95.3535 28.9865 95.4402 28.9934 95.5164 28.9653C95.5106 28.9982 95.508 29.0309 95.5152 29.0644C95.4173 29.0145 95.2948 29.0312 95.2162 29.1163C95.1375 29.2013 95.1282 29.3237 95.1852 29.4171C95.0768 29.402 94.9669 29.4601 94.9206 29.5656C94.8743 29.6711 94.9088 29.7904 94.9933 29.8592C94.8858 29.8813 94.8012 29.9733 94.7929 30.0875C94.7847 30.2017 94.8569 30.3038 94.9604 30.3404C94.8667 30.3973 94.8178 30.5111 94.8484 30.6226C94.879 30.7341 94.9816 30.8048 95.0906 30.8053C95.0218 30.8913 95.0141 31.0135 95.0793 31.108C95.1462 31.2023 95.2656 31.2345 95.3688 31.1981C95.3321 31.3013 95.3665 31.4206 95.4607 31.4871C95.5549 31.5535 95.6795 31.5448 95.7642 31.4755C95.7638 31.5859 95.8359 31.6864 95.9471 31.7175C96.0584 31.7487 96.172 31.6985 96.2289 31.6052C96.2654 31.7082 96.368 31.7789 96.483 31.7708C96.5429 31.7666 96.5949 31.7419 96.6361 31.7033C96.6864 31.7241 96.7455 31.7313 96.8029 31.7143C96.8604 31.6989 96.9067 31.6632 96.9392 31.617C96.9937 31.6278 97.0519 31.6221 97.1052 31.594C97.2073 31.5414 97.2579 31.4275 97.2341 31.3204C97.332 31.3703 97.4545 31.3536 97.5331 31.2685C97.6118 31.1835 97.6211 31.0611 97.5641 30.9677C97.6725 30.9828 97.7824 30.9248 97.8287 30.8192C97.8749 30.7137 97.8405 30.5944 97.756 30.5256C97.8634 30.5035 97.9481 30.4115 97.9564 30.2973C97.9646 30.1831 97.8924 30.081 97.7889 30.0444C97.8826 29.9875 97.9315 29.8737 97.9009 29.7622C97.8703 29.6507 97.7677 29.58 97.6586 29.5796C97.7275 29.4936 97.7352 29.3713 97.6699 29.2768C97.6031 29.1825 97.4837 29.1503 97.3805 29.1868C97.4172 29.0835 97.3828 28.9642 97.2886 28.8977C97.2183 28.8475 97.1316 28.8406 97.0555 28.8687C97.0613 28.8358 97.0639 28.8031 97.0567 28.7696C97.1546 28.8195 97.277 28.8028 97.3557 28.7177C97.4343 28.6327 97.4436 28.5102 97.3866 28.4168C97.4951 28.432 97.6049 28.3739 97.6512 28.2684C97.6975 28.1629 97.6631 28.0435 97.5786 27.9748C97.686 27.9527 97.7707 27.8607 97.7789 27.7465C97.7872 27.6322 97.7149 27.5302 97.6115 27.4936C97.7051 27.4367 97.7541 27.3229 97.7235 27.2114C97.6929 27.0999 97.5903 27.0292 97.4812 27.0287C97.55 26.9427 97.5577 26.8204 97.4925 26.726C97.4257 26.6317 97.3063 26.5995 97.2031 26.6359C97.2397 26.5327 97.2053 26.4134 97.1112 26.3469C97.0975 26.3381 97.0841 26.3326 97.0691 26.3271C97.1123 26.316 97.1531 26.2953 97.1864 26.2589C97.265 26.1738 97.2743 26.0514 97.2173 25.958C97.3258 25.9731 97.4356 25.9151 97.4819 25.8095C97.5282 25.704 97.4938 25.5847 97.4092 25.5159C97.5167 25.4938 97.6013 25.4018 97.6096 25.2876C97.6179 25.1734 97.5456 25.0713 97.4421 25.0347C97.5358 24.9778 97.5848 24.864 97.5541 24.7525C97.5235 24.641 97.4209 24.5703 97.3119 24.5699C97.3807 24.4839 97.3884 24.3616 97.3232 24.2671C97.2563 24.1728 97.1369 24.1406 97.0337 24.1771C97.0488 24.137 97.0491 24.0948 97.0413 24.0532C97.0531 24.0134 97.0583 23.9708 97.0505 23.9291C97.1484 23.9791 97.2709 23.9624 97.3495 23.8773C97.4282 23.7922 97.4375 23.6698 97.3805 23.5764C97.4889 23.5915 97.5988 23.5335 97.6451 23.428C97.6913 23.3225 97.6569 23.2031 97.5724 23.1344C97.6798 23.1122 97.7646 23.0219 97.7728 22.906ZM95.3326 26.5091C95.3358 26.5089 95.3391 26.5087 95.3422 26.5068C95.3423 26.5084 95.3424 26.51 95.3425 26.5117C95.3392 26.5103 95.3359 26.5105 95.3326 26.5091ZM96.891 26.3169C96.8909 26.3153 96.8908 26.3137 96.8907 26.3121C96.894 26.3135 96.8973 26.3132 96.9006 26.3146C96.8975 26.3165 96.8943 26.3167 96.891 26.3169Z" fill="#111010"/>
<path d="M96.525 28.0796L96.5749 28.1638C96.5896 28.1887 96.6169 28.2063 96.6463 28.2075L96.7445 28.2152C96.7788 28.2176 96.7947 28.2587 96.7721 28.2847L96.7073 28.3574C96.6877 28.3799 96.68 28.4096 96.6869 28.4384L96.7098 28.5325C96.7186 28.566 96.6848 28.5944 96.6529 28.5804L96.5639 28.5412C96.5371 28.5301 96.5064 28.5322 96.4814 28.547L96.3987 28.5982C96.3691 28.6165 96.3316 28.5932 96.3357 28.5588L96.3452 28.4624C96.3481 28.4329 96.3363 28.4045 96.3138 28.385L96.2394 28.3221C96.2134 28.2995 96.2234 28.2566 96.2571 28.2494L96.3532 28.228C96.382 28.2211 96.4067 28.2016 96.4178 28.1748L96.4554 28.0845C96.463 28.0531 96.5067 28.0501 96.525 28.0796Z" fill="#FADB81"/>
<path d="M95.9036 28.2222L95.9332 28.2737C95.9425 28.2893 95.9595 28.2995 95.9775 28.3015L96.038 28.3053C96.0593 28.3071 96.0692 28.3324 96.0556 28.3479L96.0148 28.393C96.0028 28.4068 95.9976 28.4251 96.002 28.4426L96.016 28.5017C96.0207 28.5225 96.0008 28.5401 95.9806 28.5318L95.9269 28.5079C95.9101 28.501 95.8907 28.5024 95.8751 28.5116L95.8236 28.5428C95.8048 28.5539 95.7826 28.5392 95.7844 28.518L95.7899 28.4575C95.7919 28.4395 95.7842 28.4222 95.7703 28.4102L95.7237 28.3712C95.7081 28.3577 95.7143 28.3313 95.7352 28.3266L95.7945 28.3143C95.8121 28.3098 95.8275 28.2974 95.8345 28.2807L95.8566 28.2255C95.8651 28.2071 95.8926 28.2052 95.9036 28.2222Z" fill="#FF7260"/>
<path d="M97.1035 28.138L97.1331 28.1895C97.1423 28.2051 97.1593 28.2153 97.1774 28.2173L97.2378 28.2211C97.2591 28.2229 97.269 28.2482 97.2555 28.2637L97.2147 28.3088C97.2027 28.3226 97.1974 28.3408 97.2019 28.3584L97.2158 28.4175C97.2205 28.4383 97.2006 28.4559 97.1805 28.4476L97.1251 28.4238C97.1084 28.4169 97.0889 28.4183 97.0733 28.4275L97.0218 28.4587C97.0031 28.4697 96.9809 28.4551 96.9826 28.4338L96.9882 28.3734C96.9902 28.3554 96.9824 28.3381 96.9686 28.3261L96.9219 28.2871C96.9063 28.2736 96.9126 28.2472 96.9334 28.2425L96.9928 28.2302C97.0103 28.2257 97.0257 28.2133 97.0327 28.1966L97.0549 28.1414C97.0666 28.1228 97.0941 28.1208 97.1035 28.138Z" fill="#FF7260"/>
<path d="M105.751 26.6187C105.751 26.6187 95.9885 27.5783 92.5421 31.9858C89.0958 36.3932 96.9724 37.4004 96.9724 37.4004L105.751 26.6187Z" fill="#FADB81"/>
<path d="M91.8038 46.8978C91.0427 46.2321 90.2317 45.6202 89.371 45.0881C88.4711 44.5311 87.5086 44.0565 86.4899 43.7546C86.0895 43.6366 85.6797 43.5485 85.2659 43.4948C84.771 46.4126 86.4508 49.8514 88.1501 50.3442C89.7082 50.7965 91.1265 49.6969 93.4641 48.666C92.9948 48.0074 92.4107 47.4299 91.8038 46.8978Z" fill="#FF7260"/>
<path d="M99.2713 33.2894C98.8447 31.407 96.5769 29.4217 94.2853 29.0453C91.9939 28.6704 88.4964 29.4516 88.4964 29.4516C88.4964 29.4516 89.9567 37.8522 86.757 40.6969C85.9284 41.4337 85.47 42.3912 85.2816 43.4157C85.8187 43.4868 86.3468 43.6153 86.8585 43.7888C87.8702 44.1301 88.8217 44.6331 89.715 45.2117C90.5674 45.7654 91.3779 46.392 92.1259 47.0797C92.6425 47.5548 93.1323 48.0643 93.5401 48.6347C94.6563 48.1472 96.1337 47.5192 97.6403 46.7966C102.454 44.4879 99.698 35.1717 99.2713 33.2894Z" fill="#FF7260"/>
<path d="M99.5924 45.0962C101.637 39.706 97.5379 34.1643 97.5379 34.1643C97.7954 32.5245 97.2747 30.4377 97.2727 30.4329C96.9745 30.1958 96.6567 29.9794 96.3227 29.7886C96.8299 31.3341 96.8833 34.7151 95.0939 34.9089C94.6466 34.9581 94.2216 34.8841 93.8344 34.7457C92.7528 34.3589 91.9532 33.4459 91.6111 32.3514C91.0888 30.6836 90.1984 29.1958 90.1984 29.1958L90.1743 29.1536C89.5508 29.2428 89.04 29.3371 88.7513 29.3964C89.1784 29.8258 90.9319 31.6929 91.0619 33.5458C91.1646 35.0077 89.6636 35.5092 88.7317 35.6785C88.5361 37.6435 87.9974 39.5904 86.752 40.6957C85.7503 41.5858 85.2854 42.7986 85.192 44.0649C88.3531 44.218 90.6799 47.1829 91.9759 49.3711C93.3849 48.6732 95.2088 48.2058 97.4458 47.0407C98.4178 46.5374 99.1119 45.8783 99.5924 45.0962Z" fill="#F6EEE8"/>
<path d="M94.2852 29.0453C93.3206 28.8873 92.1408 28.9344 91.0988 29.0416C91.099 29.0449 91.8359 31.7301 93.9238 31.7086C95.2182 31.6956 95.6636 30.4615 95.8145 29.5272C95.3199 29.2973 94.8038 29.1306 94.2852 29.0453Z" fill="#AC412D"/>
</g>
<mask id="mask2_2415_33" style="mask-type:luminance" maskUnits="userSpaceOnUse" x="80" y="7" width="71" height="62">
<path d="M143.091 13.8792L143.087 13.8925C139.892 11.5632 135.887 10.3038 131.63 10.6026C129.08 10.7817 126.696 11.5025 124.586 12.6425C122.061 9.25483 117.918 7.18208 113.385 7.50022C109.026 7.8062 105.33 10.2523 103.253 13.7374C101.277 13.1374 99.1635 12.8816 96.9808 13.0348C92.7302 13.3332 88.9447 15.1346 86.1092 17.8807C86.1092 17.8807 77.156 25.5529 81.9556 38.4317C81.9837 38.5077 82.0117 38.582 82.0415 38.6578C82.0615 38.7116 82.0798 38.7639 82.1014 38.816C88.1688 54.3866 118.259 68.1477 118.259 68.1477C118.259 68.1477 146.156 50.3033 149.972 34.0292L149.986 34.0492C153.229 20.351 143.091 13.8792 143.091 13.8792Z" fill="white"/>
</mask>
<g mask="url(#mask2_2415_33)">
<path d="M120.007 26.454C120.157 26.3526 120.25 26.1788 120.233 25.9868C120.217 25.7948 120.095 25.6394 119.932 25.5648C120.07 25.4496 120.144 25.2659 120.108 25.0768C120.072 24.8878 119.935 24.7448 119.763 24.6887C119.888 24.5598 119.943 24.3693 119.887 24.1849C119.832 24.0004 119.68 23.8731 119.505 23.8335C119.615 23.691 119.65 23.497 119.576 23.3187C119.502 23.1405 119.338 23.0303 119.159 23.0087C119.254 22.856 119.269 22.6585 119.176 22.4897C119.083 22.3209 118.909 22.2276 118.729 22.2256C118.809 22.0641 118.802 21.8666 118.693 21.7086C118.583 21.5508 118.4 21.4743 118.221 21.4918C118.282 21.3235 118.255 21.1274 118.129 20.9804C118.004 20.835 117.814 20.7785 117.638 20.8136C117.682 20.6384 117.635 20.4469 117.495 20.3155C117.356 20.1824 117.16 20.1475 116.988 20.2001C117.013 20.0214 116.947 19.8361 116.793 19.7187C116.777 19.7068 116.762 19.6981 116.747 19.6878C116.809 19.6461 116.858 19.5858 116.886 19.5109C116.93 19.3811 116.896 19.2455 116.812 19.1508C116.934 19.1146 117.035 19.0166 117.066 18.8846C117.097 18.7509 117.049 18.6195 116.954 18.5337C117.072 18.4848 117.162 18.3778 117.179 18.2419C117.195 18.106 117.135 17.9804 117.032 17.9049C117.145 17.845 117.223 17.7275 117.226 17.5909C117.228 17.4544 117.154 17.3346 117.044 17.2709C117.15 17.1985 117.216 17.0754 117.205 16.9398C117.194 16.8042 117.108 16.6934 116.99 16.6399C117.088 16.5584 117.141 16.428 117.115 16.2935C117.09 16.1589 116.993 16.0586 116.871 16.0168C116.961 15.9245 116.999 15.7903 116.96 15.6599C116.92 15.5296 116.813 15.4381 116.689 15.4111C116.768 15.3098 116.793 15.1717 116.74 15.0455C116.687 14.9193 116.571 14.8398 116.443 14.8261C116.51 14.7175 116.521 14.5787 116.454 14.4584C116.389 14.338 116.266 14.272 116.137 14.2713C116.192 14.157 116.189 14.016 116.111 13.9046C116.033 13.7915 115.903 13.739 115.777 13.7511C115.82 13.6312 115.803 13.4928 115.712 13.3888C115.624 13.2846 115.489 13.2453 115.362 13.2705C115.394 13.1465 115.36 13.0109 115.261 12.9172C115.162 12.8235 115.023 12.7975 114.9 12.8354C114.919 12.709 114.871 12.5777 114.763 12.4944C114.654 12.4111 114.513 12.3999 114.397 12.4503C114.402 12.3233 114.341 12.196 114.224 12.1247C114.107 12.0534 113.967 12.0567 113.854 12.1198C113.845 11.9922 113.772 11.8724 113.649 11.8145C113.526 11.7549 113.386 11.7729 113.282 11.8467C113.26 11.7216 113.174 11.6092 113.046 11.5646C112.917 11.5184 112.779 11.5508 112.683 11.6355C112.648 11.513 112.552 11.411 112.419 11.3781C112.287 11.3452 112.153 11.3919 112.065 11.4857C112.018 11.3673 111.912 11.2756 111.776 11.2576C111.64 11.2396 111.514 11.2988 111.436 11.4016C111.378 11.2888 111.262 11.2093 111.125 11.2043C110.988 11.2009 110.867 11.2727 110.802 11.3828C110.731 11.2758 110.608 11.2098 110.472 11.2193C110.446 11.2211 110.422 11.2261 110.398 11.2326C110.373 11.2295 110.349 11.2296 110.323 11.233C110.187 11.2458 110.076 11.3331 110.026 11.4503C109.942 11.3539 109.812 11.303 109.677 11.3303C109.542 11.3576 109.442 11.4556 109.403 11.5768C109.309 11.4892 109.175 11.4516 109.044 11.4932C108.914 11.5348 108.823 11.6418 108.798 11.767C108.697 11.6897 108.558 11.6669 108.432 11.7212C108.306 11.7756 108.228 11.8931 108.215 12.0189C108.106 11.9519 107.966 11.9439 107.847 12.0107C107.728 12.0775 107.662 12.2022 107.663 12.3288C107.547 12.2737 107.407 12.2802 107.295 12.3595C107.184 12.4387 107.131 12.569 107.145 12.6963C107.025 12.6544 106.885 12.674 106.782 12.764C106.679 12.854 106.64 12.9899 106.667 13.1146C106.542 13.0844 106.407 13.1199 106.313 13.2206C106.219 13.3214 106.196 13.4593 106.236 13.5799C106.109 13.5629 105.977 13.6127 105.894 13.7208C105.812 13.8304 105.802 13.9707 105.855 14.0872C105.727 14.0831 105.6 14.1457 105.53 14.2626C105.46 14.3795 105.465 14.5204 105.528 14.6312C105.4 14.6418 105.282 14.7167 105.224 14.8393C105.166 14.9635 105.185 15.1017 105.261 15.2052C105.136 15.2286 105.025 15.3143 104.98 15.444C104.935 15.5738 104.969 15.7094 105.054 15.8041C104.931 15.8403 104.831 15.9383 104.799 16.0703C104.768 16.204 104.816 16.3354 104.912 16.4212C104.793 16.4701 104.703 16.5771 104.687 16.713C104.67 16.8489 104.731 16.9745 104.834 17.05C104.721 17.1099 104.643 17.2274 104.64 17.364C104.638 17.5005 104.711 17.6203 104.821 17.684C104.716 17.7564 104.65 17.8795 104.661 18.0151C104.672 18.1507 104.758 18.2615 104.876 18.315C104.777 18.3966 104.724 18.5269 104.75 18.6614C104.776 18.796 104.872 18.8963 104.994 18.9381C104.906 19.0303 104.867 19.1646 104.905 19.295C104.945 19.4253 105.053 19.5168 105.177 19.5438C105.097 19.6452 105.073 19.7832 105.126 19.9094C105.179 20.0356 105.295 20.1151 105.423 20.1288C105.368 20.2138 105.353 20.3188 105.381 20.4174C105.374 20.4764 105.373 20.5349 105.385 20.5925C105.21 20.5512 105.018 20.6004 104.886 20.7411C104.755 20.8819 104.721 21.0774 104.777 21.2488C104.598 21.2256 104.413 21.2939 104.296 21.4481C104.18 21.6024 104.167 21.7998 104.24 21.9634C104.059 21.9583 103.883 22.0453 103.784 22.2114C103.685 22.3774 103.692 22.5749 103.781 22.7294C103.601 22.7436 103.433 22.848 103.353 23.0241C103.272 23.1986 103.299 23.3947 103.405 23.5399C103.228 23.5718 103.073 23.6947 103.009 23.8761C102.947 24.059 102.995 24.2505 103.114 24.3833C102.941 24.4345 102.799 24.571 102.755 24.7592C102.711 24.9473 102.78 25.1325 102.912 25.253C102.746 25.3215 102.618 25.4733 102.594 25.6633C102.57 25.855 102.657 26.0323 102.802 26.139C102.643 26.2248 102.533 26.3884 102.528 26.5803C102.524 26.7722 102.628 26.9401 102.785 27.0314C102.635 27.1328 102.542 27.3066 102.559 27.4986C102.575 27.6906 102.697 27.846 102.86 27.9206C102.722 28.0359 102.648 28.2196 102.684 28.4086C102.72 28.5976 102.857 28.7406 103.029 28.7967C102.904 28.9256 102.849 29.1161 102.905 29.3006C102.96 29.485 103.112 29.6123 103.287 29.652C103.177 29.7945 103.142 29.9885 103.216 30.1667C103.29 30.3449 103.454 30.4552 103.633 30.4767C103.538 30.6295 103.523 30.827 103.616 30.9958C103.709 31.1645 103.883 31.2578 104.063 31.2599C103.983 31.4213 103.99 31.6188 104.099 31.7768C104.209 31.9346 104.392 32.0111 104.571 31.9936C104.51 32.1619 104.537 32.3581 104.663 32.5051C104.788 32.6521 104.978 32.707 105.154 32.6719C105.11 32.8471 105.157 33.0385 105.297 33.17C105.436 33.303 105.632 33.338 105.804 33.2853C105.779 33.464 105.845 33.6494 105.999 33.7668C106.152 33.8843 106.35 33.8996 106.516 33.8279C106.509 34.0069 106.595 34.186 106.76 34.2864C106.925 34.3868 107.123 34.3827 107.279 34.2938C107.29 34.4732 107.395 34.6412 107.568 34.7248C107.742 34.8084 107.939 34.7832 108.086 34.6787C108.116 34.8568 108.236 35.0123 108.418 35.0775C108.6 35.1426 108.792 35.0967 108.929 34.9783C108.977 35.1519 109.114 35.2949 109.301 35.3402C109.488 35.3855 109.675 35.3204 109.798 35.1884C109.865 35.3558 110.014 35.4833 110.206 35.5104C110.397 35.536 110.576 35.452 110.685 35.308C110.768 35.4677 110.932 35.5796 111.124 35.5856C111.317 35.5915 111.487 35.4887 111.58 35.3344C111.68 35.4848 111.853 35.5799 112.045 35.5647C112.081 35.5622 112.116 35.5565 112.148 35.5461C112.183 35.5502 112.217 35.5494 112.254 35.5468C112.446 35.5285 112.602 35.4055 112.673 35.2398C112.792 35.376 112.976 35.4475 113.165 35.4098C113.355 35.3706 113.496 35.2324 113.551 35.0613C113.682 35.1853 113.873 35.2368 114.057 35.1784C114.242 35.12 114.368 34.9683 114.404 34.792C114.547 34.9005 114.743 34.9338 114.92 34.8565C115.097 34.7791 115.207 34.6155 115.225 34.4357C115.38 34.5287 115.578 34.5408 115.745 34.4463C115.913 34.3517 116.006 34.1763 116.005 33.9962C116.168 34.0724 116.366 34.065 116.523 33.9534C116.681 33.8416 116.754 33.6579 116.735 33.4791C116.905 33.5385 117.102 33.5101 117.246 33.3831C117.392 33.256 117.445 33.0656 117.408 32.8896C117.584 32.9309 117.775 32.8817 117.907 32.741C118.039 32.5986 118.072 32.4047 118.016 32.2333C118.195 32.2565 118.381 32.1882 118.497 32.034C118.613 31.8797 118.627 31.6823 118.553 31.5187C118.734 31.5238 118.911 31.4368 119.01 31.2707C119.109 31.1047 119.101 30.9072 119.012 30.7527C119.192 30.7385 119.36 30.6341 119.441 30.458C119.521 30.2835 119.494 30.0874 119.388 29.9422C119.565 29.9103 119.721 29.7874 119.784 29.606C119.847 29.423 119.799 29.2316 119.679 29.0988C119.853 29.0476 119.994 28.911 120.037 28.723C120.08 28.5349 120.012 28.3498 119.88 28.2292C120.046 28.1607 120.174 28.0089 120.198 27.8189C120.222 27.6273 120.134 27.4499 119.99 27.3432C120.148 27.2574 120.259 27.0938 120.263 26.9019C120.268 26.7117 120.163 26.5437 120.007 26.454Z" fill="#111010"/>
<path d="M119.386 26.2005C119.386 26.2005 127.593 27.506 131.847 34.5125C136.082 41.4878 123.226 37.3756 123.226 37.3756L119.386 26.2005Z" fill="#FADB81"/>
<path d="M132.852 59.9854C132.852 59.9854 129.013 50.5375 126.54 47.125C124.075 43.7202 121.306 41.7766 121.294 41.7677C121.745 41.6094 122.175 41.4364 122.575 41.2427C126.448 39.3702 124.714 30.4271 121.391 26.8975C118.068 23.3678 110.599 23.7216 110.599 23.7216C110.599 23.7216 103.277 24.3963 100.477 28.3541C97.6779 32.3119 97.0909 41.4293 101.188 42.7424C101.611 42.8783 102.061 42.9911 102.53 43.0832C102.519 43.0937 100.048 45.4051 98.0832 49.1209C96.1137 52.8452 94.4635 60.4009 94.4635 60.4009L113.715 68.1322L113.929 71.1886L132.852 59.9854Z" fill="#FADB81"/>
<path d="M100.211 29.5919C100.211 29.5919 97.9292 32.6238 98.1792 36.7426C98.4293 40.8614 99.6949 43.5679 104.967 43.1979" stroke="#111010" stroke-width="0.75" stroke-miterlimit="10" stroke-linecap="round" stroke-linejoin="round"/>
<path d="M121.752 28.0799C121.752 28.0799 124.435 30.7633 124.763 34.8766C125.091 38.9899 124.216 41.8467 118.943 42.2168" stroke="#111010" stroke-width="0.75" stroke-miterlimit="10" stroke-linecap="round" stroke-linejoin="round"/>
<path d="M100.923 27.6816C100.947 27.701 100.971 27.7188 101 27.7411C101.928 28.4422 105.599 30.8907 111.137 30.5019C115.718 30.1804 119.433 27.9667 121.207 26.7091C117.798 23.3818 110.601 23.7231 110.601 23.7231C110.601 23.7231 104.042 24.3328 100.923 27.6816Z" fill="#AC412D"/>
<path d="M111.069 29.6512C110.886 29.6705 110.742 29.7927 110.685 29.9541C110.623 29.7458 110.421 29.6041 110.197 29.628C110.051 29.6431 109.93 29.7263 109.857 29.8418C109.867 29.7957 109.872 29.7482 109.866 29.6983C109.841 29.4468 109.613 29.2631 109.361 29.2906C109.261 29.3009 109.174 29.3426 109.104 29.4044C109.103 29.3931 109.106 29.3832 109.103 29.372C109.077 29.1206 108.85 28.9369 108.598 28.9643C108.585 28.9652 108.574 28.9692 108.561 28.9717C108.584 28.9084 108.595 28.8394 108.587 28.767C108.561 28.5155 108.334 28.3319 108.082 28.3593C108.062 28.3606 108.045 28.3667 108.027 28.3712C108.055 28.3043 108.068 28.2304 108.059 28.1531C108.033 27.9016 107.806 27.718 107.554 27.7454C107.546 27.7459 107.538 27.7497 107.53 27.7503C107.613 27.6568 107.658 27.5319 107.643 27.3982C107.618 27.1484 107.395 26.9676 107.146 26.9899C107.235 26.896 107.286 26.7658 107.272 26.6272C107.246 26.3774 107.024 26.1966 106.775 26.2189C106.872 26.1244 106.928 25.989 106.913 25.844C106.889 25.6184 106.704 25.4495 106.484 25.4358C106.594 25.3404 106.659 25.1962 106.641 25.04C106.616 24.7885 106.388 24.6048 106.136 24.6323C105.884 24.6581 105.7 24.8853 105.727 25.1366C105.751 25.3622 105.935 25.5311 106.156 25.5448C106.046 25.6402 105.981 25.7844 105.998 25.9406C106.024 26.1904 106.247 26.3712 106.496 26.3489C106.398 26.4434 106.343 26.5788 106.358 26.7238C106.383 26.9736 106.606 27.1545 106.855 27.1321C106.765 27.226 106.714 27.3562 106.729 27.4948C106.755 27.7463 106.982 27.93 107.234 27.9025C107.243 27.902 107.25 27.8982 107.258 27.8976C107.176 27.9911 107.131 28.116 107.145 28.2497C107.171 28.5012 107.398 28.6848 107.65 28.6574C107.67 28.6561 107.687 28.65 107.705 28.6455C107.677 28.7124 107.664 28.7863 107.673 28.8636C107.699 29.1151 107.926 29.2987 108.178 29.2713C108.191 29.2704 108.202 29.2664 108.215 29.2639C108.192 29.3272 108.181 29.3962 108.189 29.4686C108.215 29.7201 108.442 29.9038 108.694 29.8763C108.794 29.866 108.881 29.8243 108.952 29.7625C108.952 29.7738 108.95 29.7837 108.952 29.7949C108.978 30.0463 109.206 30.23 109.458 30.2026C109.603 30.1875 109.724 30.1044 109.797 29.9888C109.788 30.035 109.783 30.0824 109.788 30.1324C109.814 30.3838 110.041 30.5675 110.293 30.5401C110.476 30.5207 110.62 30.3986 110.677 30.2371C110.739 30.4455 110.941 30.5871 111.165 30.5632C111.418 30.5374 111.602 30.3102 111.574 30.0589C111.547 29.8076 111.321 29.6238 111.069 29.6512Z" fill="#F6EEE8"/>
<path d="M116.071 24.5193C116.045 24.2679 115.817 24.0842 115.565 24.1116C115.313 24.1374 115.129 24.3647 115.156 24.616C115.171 24.7626 115.256 24.8833 115.372 24.9563C115.134 24.9958 114.965 25.2122 114.991 25.4555C115.006 25.5989 115.087 25.7198 115.201 25.7914C114.949 25.8188 114.765 26.0444 114.793 26.2957C114.803 26.4005 114.85 26.493 114.919 26.5644C114.904 26.5655 114.891 26.5631 114.876 26.5642C114.624 26.59 114.44 26.8172 114.468 27.0685C114.477 27.1507 114.508 27.2248 114.555 27.2881C114.515 27.2811 114.474 27.2775 114.431 27.2821C114.179 27.308 113.994 27.5352 114.022 27.7865C114.03 27.8606 114.056 27.9269 114.094 27.9859C114.06 27.9819 114.026 27.981 113.99 27.9835C113.738 28.0093 113.554 28.2365 113.581 28.4879C113.587 28.5459 113.605 28.5998 113.63 28.6484C113.565 28.6221 113.492 28.611 113.416 28.618C113.164 28.6438 112.98 28.871 113.007 29.1223C113.012 29.1642 113.023 29.2024 113.038 29.2402C112.949 29.1751 112.838 29.1407 112.718 29.1523C112.471 29.1778 112.293 29.3949 112.308 29.6405C112.219 29.5737 112.106 29.5395 111.986 29.5511C111.734 29.5769 111.55 29.8041 111.577 30.0554C111.603 30.3069 111.831 30.4906 112.083 30.4631C112.33 30.4377 112.508 30.2206 112.493 29.975C112.582 30.0417 112.695 30.076 112.815 30.0644C113.067 30.0386 113.251 29.8114 113.224 29.56C113.219 29.5181 113.208 29.4799 113.192 29.4421C113.282 29.5072 113.393 29.5416 113.513 29.53C113.765 29.5042 113.949 29.277 113.922 29.0257C113.916 28.9676 113.897 28.9137 113.873 28.8651C113.938 28.8914 114.011 28.9025 114.087 28.8956C114.339 28.8698 114.523 28.6425 114.495 28.3912C114.487 28.3171 114.461 28.2508 114.423 28.1918C114.457 28.1958 114.491 28.1967 114.527 28.1942C114.779 28.1684 114.963 27.9412 114.936 27.6899C114.927 27.6077 114.896 27.5336 114.849 27.4703C114.888 27.4773 114.929 27.4809 114.973 27.4762C115.225 27.4504 115.409 27.2232 115.382 26.9719C115.371 26.8671 115.324 26.7746 115.256 26.7031C115.27 26.7021 115.283 26.7044 115.298 26.7034C115.55 26.6776 115.734 26.4504 115.707 26.1991C115.692 26.0556 115.61 25.9348 115.496 25.8632C115.748 25.8358 115.932 25.6102 115.905 25.3589C115.89 25.2122 115.805 25.0916 115.689 25.0185C115.927 24.9775 116.096 24.7611 116.071 24.5193Z" fill="#F6EEE8"/>
<path d="M115.941 17.0172C116.132 19.7829 112.597 22.2762 111.267 22.3695C109.726 22.4777 106.093 20.473 105.904 17.7087C105.713 14.9429 107.806 12.546 110.577 12.3564C113.348 12.1651 115.75 14.2514 115.941 17.0172Z" fill="#AC412D"/>
<path d="M115.941 17.0172C115.906 16.5228 116.281 16.0939 116.777 16.0591C117.272 16.0244 117.702 16.3984 117.737 16.8927C117.771 17.387 117.396 17.816 116.901 17.8507C116.405 17.8855 115.976 17.5115 115.941 17.0172Z" fill="#AC412D"/>
<path d="M117.055 16.2701L116.591 17.5592" stroke="#111010" stroke-width="0.75" stroke-miterlimit="10" stroke-linecap="round" stroke-linejoin="round"/>
<path d="M104.106 17.8333C104.071 17.339 104.447 16.91 104.942 16.8753C105.438 16.8405 105.867 17.2145 105.902 17.7088C105.937 18.2031 105.562 18.6321 105.066 18.6668C104.569 18.7017 104.139 18.3277 104.106 17.8333Z" fill="#AC412D"/>
<path d="M104.673 17.123L105.31 18.3364" stroke="#111010" stroke-width="0.75" stroke-miterlimit="10" stroke-linecap="round" stroke-linejoin="round"/>
<path d="M109.91 20.4924C109.91 20.4924 110.381 20.0795 111.106 20.0302C111.83 19.981 112.305 20.3275 112.305 20.3275C112.305 20.3275 111.976 21.1721 111.126 21.2318C110.274 21.2899 109.91 20.4924 109.91 20.4924Z" fill="#661043"/>
<path d="M109.575 20.3309C110.484 20.7346 111.583 20.6834 112.451 20.1972" stroke="#111010" stroke-width="0.75" stroke-miterlimit="10" stroke-linecap="round" stroke-linejoin="round"/>
<path d="M114.286 16.7324C114.301 16.9505 114.135 17.139 113.916 17.1544C113.698 17.1697 113.509 17.0044 113.494 16.7864C113.478 16.5683 113.644 16.3797 113.863 16.3643C114.081 16.3506 114.272 16.5142 114.286 16.7324Z" fill="#111010"/>
<path d="M108.174 17.1533C108.189 17.3714 108.023 17.5599 107.805 17.5753C107.586 17.5906 107.397 17.4253 107.382 17.2072C107.367 16.9892 107.532 16.8006 107.751 16.7852C107.97 16.7715 108.159 16.9352 108.174 17.1533Z" fill="#111010"/>
<path d="M107.148 16.0743C107.148 16.0743 107.61 15.5679 108.262 15.9978" stroke="#111010" stroke-width="0.75" stroke-miterlimit="10" stroke-linecap="round" stroke-linejoin="round"/>
<path d="M113.255 15.6538C113.255 15.6538 113.717 15.1473 114.369 15.5772" stroke="#111010" stroke-width="0.75" stroke-miterlimit="10" stroke-linecap="round" stroke-linejoin="round"/>
<path d="M110.558 16.6207L111.436 18.4259L110.429 18.495" stroke="#111010" stroke-width="0.75" stroke-miterlimit="10" stroke-linecap="round" stroke-linejoin="round"/>
<path d="M114.753 13.2386C114.623 13.1682 114.491 13.1011 114.36 13.0357C114.004 12.861 113.647 12.6928 113.27 12.5634C112.862 12.4233 113.024 11.9947 112.596 11.9241C112.258 11.8683 111.468 11.8004 111.125 11.7936C110.485 11.7817 109.707 12.1967 109.08 12.3284C108.463 12.4577 107.856 12.6756 107.327 13.0228C107.032 13.2172 106.767 13.4534 106.543 13.7207C106.566 13.7726 106.601 13.8189 106.649 13.8561C106.757 13.9394 106.898 13.9507 107.015 13.9003C107.009 14.0273 107.07 14.1545 107.187 14.2258C107.305 14.2971 107.444 14.2938 107.557 14.2307C107.566 14.3583 107.639 14.4782 107.762 14.5361C107.885 14.5956 108.026 14.5777 108.129 14.5038C108.151 14.6289 108.237 14.7414 108.366 14.7859C108.494 14.8321 108.632 14.7997 108.728 14.715C108.763 14.8376 108.86 14.9396 108.992 14.9725C109.125 15.0054 109.258 14.9587 109.346 14.8649C109.393 14.9833 109.499 15.0749 109.635 15.0929C109.772 15.1109 109.898 15.0518 109.975 14.9489C110.033 15.0617 110.15 15.1412 110.287 15.1462C110.424 15.1496 110.544 15.0778 110.609 14.9677C110.68 15.0748 110.804 15.1408 110.94 15.1312C110.966 15.1294 110.99 15.1245 111.014 15.1179C111.038 15.1211 111.063 15.121 111.089 15.1175C111.224 15.1048 111.335 15.0174 111.386 14.9002C111.469 14.9967 111.599 15.0476 111.734 15.0203C111.869 14.9929 111.97 14.895 112.008 14.7738C112.102 14.8613 112.237 14.899 112.367 14.8573C112.498 14.8157 112.588 14.7087 112.613 14.5836C112.715 14.6609 112.853 14.6836 112.979 14.6293C113.106 14.575 113.184 14.4575 113.196 14.3316C113.305 14.3987 113.445 14.4067 113.564 14.3399C113.683 14.2731 113.749 14.1483 113.749 14.0217C113.865 14.0769 114.004 14.0703 114.116 13.9911C114.228 13.9118 114.28 13.7815 114.266 13.6542C114.386 13.6961 114.527 13.6765 114.629 13.5865C114.732 13.4965 114.771 13.3607 114.745 13.2359C114.751 13.2387 114.753 13.2386 114.753 13.2386Z" fill="#111010"/>
</g>
<mask id="mask3_2415_33" style="mask-type:luminance" maskUnits="userSpaceOnUse" x="80" y="7" width="71" height="62">
<path d="M143.091 13.8792L143.087 13.8925C139.892 11.5632 135.887 10.3038 131.63 10.6026C129.08 10.7817 126.696 11.5025 124.586 12.6425C122.061 9.25483 117.918 7.18208 113.385 7.50022C109.026 7.8062 105.33 10.2523 103.253 13.7374C101.277 13.1374 99.1635 12.8816 96.9808 13.0348C92.7302 13.3332 88.9447 15.1346 86.1092 17.8807C86.1092 17.8807 77.156 25.5529 81.9556 38.4317C81.9837 38.5077 82.0117 38.582 82.0415 38.6578C82.0615 38.7116 82.0798 38.7639 82.1014 38.816C88.1688 54.3866 118.259 68.1477 118.259 68.1477C118.259 68.1477 146.156 50.3033 149.972 34.0292L149.986 34.0492C153.229 20.351 143.091 13.8792 143.091 13.8792Z" fill="white"/>
</mask>
<g mask="url(#mask3_2415_33)">
<path d="M136.433 26.5753C136.549 26.5055 136.624 26.3769 136.614 26.2331C136.602 26.057 136.469 25.9203 136.301 25.8947C136.45 25.8388 136.552 25.6904 136.54 25.524C136.528 25.3447 136.388 25.2036 136.215 25.1832C136.326 25.1121 136.398 24.9869 136.388 24.8464C136.375 24.6509 136.21 24.5034 136.016 24.504C136.107 24.4311 136.161 24.3169 136.152 24.1909C136.138 23.997 135.977 23.8509 135.785 23.8482C135.922 23.7866 136.013 23.6455 136.002 23.4872C135.988 23.2836 135.811 23.1304 135.607 23.1448C135.599 23.1453 135.589 23.1476 135.581 23.1498C135.641 23.079 135.677 22.984 135.67 22.8838C135.656 22.6803 135.479 22.5271 135.275 22.5415C135.238 22.5441 135.204 22.5529 135.171 22.5666C135.252 22.4927 135.301 22.3854 135.293 22.2675C135.279 22.0639 135.102 21.9107 134.898 21.9251C134.895 21.9253 134.892 21.9271 134.888 21.9274C134.952 21.8563 134.989 21.7596 134.982 21.6562C134.967 21.4527 134.791 21.2995 134.586 21.3138C134.53 21.3178 134.477 21.3361 134.43 21.3621C134.521 21.2892 134.577 21.1733 134.568 21.0489C134.554 20.8453 134.377 20.6922 134.173 20.7065C134.136 20.7091 134.1 20.7181 134.067 20.7318C134.088 20.6816 134.099 20.6256 134.095 20.5691C134.081 20.3656 133.904 20.2124 133.7 20.2267C133.629 20.2317 133.565 20.2573 133.511 20.2952C133.538 20.2397 133.552 20.1771 133.547 20.1108C133.533 19.9073 133.356 19.7541 133.152 19.7684C133.068 19.7743 132.994 19.8088 132.934 19.86C132.933 19.8552 132.935 19.8518 132.934 19.847C132.92 19.6435 132.743 19.4903 132.539 19.5046C132.403 19.5142 132.292 19.5966 132.235 19.7094C132.235 19.7078 132.235 19.7062 132.234 19.7046C132.22 19.501 132.043 19.3479 131.839 19.3622C131.702 19.3718 131.589 19.4561 131.533 19.5703C131.483 19.4099 131.329 19.299 131.154 19.3113C130.99 19.3227 130.86 19.439 130.822 19.5894C130.781 19.417 130.621 19.2935 130.436 19.3065C130.24 19.3202 130.092 19.4832 130.093 19.6763C130.031 19.5394 129.89 19.4487 129.729 19.46C129.53 19.474 129.379 19.6436 129.385 19.8413C129.316 19.7227 129.186 19.6459 129.038 19.6562C128.834 19.6705 128.681 19.8469 128.695 20.0504C128.699 20.1005 128.712 20.1483 128.734 20.1905C128.691 20.1773 128.643 20.1693 128.596 20.1726C128.423 20.1848 128.289 20.3127 128.258 20.4756C128.239 20.2772 128.064 20.1288 127.863 20.1429C127.841 20.1445 127.82 20.1492 127.799 20.1539C127.804 20.126 127.807 20.0982 127.805 20.0691C127.79 19.8656 127.614 19.7124 127.41 19.7267C127.265 19.7368 127.148 19.8278 127.095 19.9517C127.058 19.7725 126.896 19.6426 126.708 19.6558C126.569 19.6656 126.454 19.7515 126.399 19.8707C126.349 19.7102 126.195 19.5993 126.02 19.6116C125.852 19.6234 125.72 19.7463 125.686 19.9013C125.622 19.7661 125.483 19.6769 125.324 19.688C125.138 19.7011 124.995 19.8491 124.982 20.0302C124.909 19.9265 124.788 19.8604 124.652 19.87C124.449 19.8842 124.299 20.0571 124.308 20.2577C124.258 20.2385 124.205 20.2292 124.148 20.2332C123.944 20.2475 123.791 20.4239 123.805 20.6274C123.806 20.642 123.81 20.6563 123.813 20.6707C123.773 20.6589 123.73 20.6538 123.687 20.6568C123.483 20.6712 123.329 20.8475 123.343 21.0511C123.347 21.1044 123.364 21.1552 123.386 21.199C123.376 21.1997 123.367 21.1972 123.357 21.1978C123.153 21.2122 122.999 21.3885 123.014 21.5921C123.017 21.6438 123.032 21.6914 123.054 21.7353C123.045 21.7344 123.035 21.7334 123.023 21.7342C122.819 21.7486 122.666 21.9249 122.68 22.1285C122.686 22.2125 122.721 22.2863 122.772 22.3444C122.583 22.3739 122.445 22.541 122.459 22.7333C122.467 22.8431 122.524 22.9381 122.605 23.0006C122.575 22.9962 122.545 22.9918 122.515 22.994C122.311 23.0083 122.157 23.1846 122.171 23.3882C122.18 23.5142 122.253 23.6227 122.355 23.6821C122.328 23.6791 122.302 23.6761 122.275 23.678C122.071 23.6923 121.917 23.8687 121.931 24.0722C121.941 24.2063 122.022 24.3175 122.133 24.3746C122.12 24.3739 122.105 24.3717 122.092 24.3726C121.888 24.3869 121.735 24.5633 121.749 24.7668C121.757 24.8831 121.819 24.981 121.908 25.043C121.748 25.0932 121.636 25.2471 121.649 25.4216C121.658 25.5621 121.746 25.6777 121.867 25.7309C121.667 25.7483 121.515 25.9229 121.529 26.1248C121.538 26.2541 121.612 26.3625 121.717 26.4217C121.558 26.4718 121.448 26.6256 121.46 26.7984C121.471 26.9519 121.574 27.0762 121.711 27.1234C121.596 27.1932 121.52 27.3218 121.53 27.4656C121.54 27.6045 121.628 27.7201 121.745 27.7752C121.608 27.8368 121.516 27.978 121.527 28.1379C121.538 28.3043 121.66 28.4354 121.815 28.4715C121.634 28.507 121.502 28.6705 121.516 28.8595C121.529 29.0501 121.686 29.1949 121.872 29.2014C121.724 29.2588 121.624 29.4054 121.635 29.5702C121.65 29.7737 121.826 29.9269 122.031 29.9126C122.09 29.9084 122.144 29.8884 122.193 29.8606C122.188 29.8885 122.185 29.918 122.188 29.947C122.202 30.1506 122.379 30.3038 122.583 30.2894C122.662 30.2839 122.733 30.2529 122.79 30.2067C122.833 30.3774 122.992 30.496 123.174 30.4833C123.349 30.471 123.487 30.3379 123.513 30.1722C123.516 30.1719 123.521 30.1716 123.525 30.173C123.525 30.1794 123.524 30.1844 123.524 30.1892C123.539 30.3928 123.715 30.546 123.919 30.5316C124.076 30.5206 124.204 30.4126 124.247 30.27C124.312 30.4002 124.451 30.4862 124.605 30.4754C124.782 30.463 124.919 30.33 124.945 30.1626C125.008 30.2978 125.147 30.387 125.306 30.3758C125.51 30.3615 125.664 30.1852 125.649 29.9816C125.648 29.9558 125.643 29.9318 125.636 29.9079C125.638 29.9078 125.639 29.9077 125.641 29.9075C125.696 30.0612 125.845 30.166 126.015 30.154C126.219 30.1397 126.372 29.9633 126.358 29.7598C126.358 29.755 126.356 29.7486 126.355 29.7438C127.785 29.3901 129.017 28.9466 129.017 28.9466C129.017 28.9466 130.37 28.6519 131.909 28.276C131.904 28.3024 131.902 28.3284 131.905 28.3575C131.919 28.561 132.096 28.7142 132.3 28.6999C132.479 28.6873 132.619 28.5492 132.642 28.3788C132.714 28.4793 132.835 28.5438 132.968 28.5345C133.158 28.5212 133.301 28.3682 133.311 28.1841C133.384 28.2878 133.505 28.3523 133.64 28.3428C133.844 28.3285 133.997 28.1522 133.983 27.9486C133.982 27.9276 133.977 27.9068 133.972 27.8877C134.041 28.0046 134.171 28.0799 134.317 28.0696C134.513 28.0559 134.661 27.8929 134.66 27.6998C134.728 27.8217 134.862 27.8999 135.009 27.8896C135.213 27.8753 135.367 27.6989 135.352 27.4954C135.351 27.4824 135.347 27.4697 135.347 27.4584C135.42 27.5555 135.538 27.6154 135.669 27.6062C135.873 27.5919 136.027 27.4155 136.013 27.212C136.012 27.1975 136.007 27.1832 136.005 27.1687C136.078 27.2399 136.179 27.2831 136.29 27.2753C136.495 27.261 136.648 27.0846 136.634 26.8811C136.623 26.7439 136.543 26.6342 136.433 26.5753ZM133.242 27.9406C133.242 27.9454 133.241 27.9504 133.242 27.9552C133.238 27.9506 133.236 27.9475 133.234 27.9427C133.237 27.9425 133.239 27.9408 133.242 27.9406ZM132.572 28.1126C132.573 28.1142 132.571 28.1159 132.571 28.1191C132.57 28.1176 132.569 28.116 132.568 28.1145C132.569 28.1128 132.571 28.1127 132.572 28.1126ZM133.913 27.762C133.916 27.7617 133.921 27.7598 133.924 27.7596C133.927 27.7691 133.927 27.7788 133.93 27.7884C133.924 27.7791 133.918 27.7697 133.913 27.762Z" fill="#111010"/>
<path d="M123.499 26.0287C123.696 28.7941 127.545 30.769 128.875 30.6757C130.416 30.5675 133.733 28.0749 133.534 25.3113C133.337 22.546 130.929 20.465 128.159 20.6643C125.389 20.8621 123.302 23.2634 123.499 26.0287Z" fill="#AC412D"/>
<path d="M135.332 25.1819C135.297 24.6876 134.866 24.3153 134.37 24.3501C133.875 24.3848 133.501 24.8153 133.536 25.3096C133.571 25.8039 134.002 26.1762 134.497 26.1414C134.995 26.1065 135.368 25.6777 135.332 25.1819Z" fill="#AC412D"/>
<path d="M134.671 24.5594L134.21 25.8499" stroke="#111010" stroke-width="0.75" stroke-miterlimit="10" stroke-linecap="round" stroke-linejoin="round"/>
<path d="M126.704 27.9872C126.704 27.9872 128.264 26.9361 130.064 27.7513C130.064 27.7513 130.366 29.881 128.52 30.0496C126.615 30.2239 126.704 27.9872 126.704 27.9872Z" fill="#661043"/>
<path d="M124.509 25.5569C124.524 25.7749 124.715 25.9385 124.933 25.9232C125.152 25.9078 125.316 25.7177 125.301 25.4997C125.286 25.2816 125.095 25.118 124.876 25.1333C124.658 25.1487 124.494 25.3388 124.509 25.5569Z" fill="#111010"/>
<path d="M130.395 25.1356C130.41 25.3537 130.6 25.5173 130.819 25.5019C131.038 25.4866 131.202 25.2965 131.186 25.0784C131.171 24.8603 130.981 24.6968 130.762 24.7121C130.543 24.7274 130.379 24.9175 130.395 25.1356Z" fill="#111010"/>
<path d="M131.26 23.9239C131.26 23.9239 130.731 23.487 130.146 24.0037" stroke="#111010" stroke-width="0.75" stroke-miterlimit="10" stroke-linecap="round" stroke-linejoin="round"/>
<path d="M125.379 24.3451C125.379 24.3451 124.851 23.9082 124.265 24.4249" stroke="#111010" stroke-width="0.75" stroke-miterlimit="10" stroke-linecap="round" stroke-linejoin="round"/>
<path d="M128.164 24.9253L127.546 26.8356L128.553 26.7632" stroke="#111010" stroke-width="0.75" stroke-miterlimit="10" stroke-linecap="round" stroke-linejoin="round"/>
<path d="M130.202 27.7417C130.274 28.7723 129.086 29.6966 128.461 29.7405C127.774 29.7886 126.53 29.0367 126.458 28.0044" fill="#F6EEE8"/>
<path d="M123.917 23.639C123.917 23.639 126.976 24.0785 128.361 21.9408C128.361 21.9408 130.314 23.4789 133.131 23.0913C133.131 23.0913 131.493 20.5309 128.428 20.6308C125.363 20.7291 124.206 22.7908 123.917 23.639Z" fill="#111010"/>
<path d="M137.165 53.6048C135.223 53.5837 133.28 53.5691 131.339 53.5965C129.428 53.6236 127.516 53.7026 125.605 53.7767C124.611 53.8156 123.616 53.8676 122.626 53.9696C122.646 56.0476 122.86 58.6479 123.758 59.1854C125.302 60.1095 139.419 58.3524 139.419 58.3524C139.419 58.3524 140.253 56.5277 141.112 53.6573C139.796 53.6344 138.48 53.6197 137.165 53.6048Z" fill="#AC412D"/>
<path d="M141.626 31.5355C140.617 31.0252 137.066 30.703 135.045 30.8076C128.772 30.7641 125.872 32.9741 125.214 33.5609L125.212 33.5626C125.113 33.6508 125.064 33.7029 125.064 33.7029C122.975 35.8154 121.083 39.9888 119.99 43.5184C118.94 46.907 122.692 51.2588 122.692 51.2588C122.692 51.2588 121.222 53.9107 121.665 54.5663C122.108 55.2219 141.762 54.7075 141.995 53.8974C142.187 53.228 141.915 51.5848 141.815 51.0318C142.401 48.5783 142.883 45.6922 142.955 42.6645C143.152 34.2936 142.903 32.1829 141.626 31.5355Z" fill="#FF7260"/>
<path d="M123.19 58.399C123.19 58.399 121.792 63.8608 122.036 67.3452C122.246 70.324 139.651 57.9725 139.651 57.9725L123.19 58.399Z" fill="#FF7260"/>
<path d="M137.197 30.8236C136.415 30.7828 135.659 30.7757 135.045 30.8075C131.181 30.78 128.6 31.6089 127.031 32.3863C127.031 32.3863 125.945 38.4591 128.295 42.937C128.295 42.9354 132.557 32.5227 137.197 30.8236Z" fill="#AC412D"/>
<path d="M122.694 51.2586C122.694 51.2586 127.357 52.7803 141.816 51.0316" stroke="#111010" stroke-width="0.75" stroke-miterlimit="10" stroke-linecap="round" stroke-linejoin="round"/>
<path d="M125.768 51.7295C125.768 51.7295 122.951 51.0896 123.497 49.8987C124.041 48.7063 125.768 51.7295 125.768 51.7295Z" stroke="#111010" stroke-width="0.75" stroke-miterlimit="10" stroke-linecap="round" stroke-linejoin="round"/>
<path d="M125.768 51.7295C125.768 51.7295 122.787 49.4729 124.061 48.502C125.335 47.5294 125.768 51.7295 125.768 51.7295Z" stroke="#111010" stroke-width="0.75" stroke-miterlimit="10" stroke-linecap="round" stroke-linejoin="round"/>
<path d="M125.768 51.7295C125.768 51.7295 124.799 48.1222 126.456 48.2121C128.11 48.3022 125.768 51.7295 125.768 51.7295Z" stroke="#111010" stroke-width="0.75" stroke-miterlimit="10" stroke-linecap="round" stroke-linejoin="round"/>
<path d="M125.684 51.7354C125.684 51.7354 126.417 48.0152 127.665 49.1045C128.912 50.1923 125.684 51.7354 125.684 51.7354Z" stroke="#111010" stroke-width="0.75" stroke-miterlimit="10" stroke-linecap="round" stroke-linejoin="round"/>
<path d="M142.63 49.4096C142.63 49.4096 134.436 32.1765 138.828 30.576C143.22 28.9772 148.512 39.0195 149.553 43.4204C150.593 47.8214 142.63 49.4096 142.63 49.4096Z" fill="#AC412D"/>
<path d="M139.861 42.0878C140.866 41.7137 141.818 41.2053 142.7 40.5963C143.457 40.074 144.16 39.4711 144.832 38.8444C145.483 38.2387 146.105 37.583 146.585 36.8302C146.642 36.7401 146.699 36.6468 146.751 36.5523C144.459 32.671 141.344 29.2842 138.569 30.2939C136.019 31.2212 137.482 37.1315 139.319 42.2736C139.5 42.2154 139.681 42.154 139.861 42.0878Z" fill="#FF7260"/>
<path d="M138.569 30.2939C136.019 31.2212 137.482 37.1315 139.319 42.2736" stroke="#111010" stroke-width="0.75" stroke-miterlimit="10" stroke-linecap="round" stroke-linejoin="round"/>
<path d="M141.744 30.7885C141.744 30.7885 138.118 33.5398 138.278 34.2802C138.437 35.019 142.084 32.3896 142.084 32.3896C142.084 32.3896 138.476 36.0893 138.611 36.4727C138.745 36.8561 143.141 34.1531 143.141 34.1531C143.141 34.1531 140.446 37.0939 140.699 37.6475C140.953 38.2011 145.359 34.413 145.359 34.413C145.359 34.413 145.711 32.4922 144.617 31.2183C143.524 29.9445 139.892 30.1264 139.892 30.1264C139.892 30.1264 141.534 30.5225 141.744 30.7885Z" fill="#AC412D"/>
</g>
<mask id="mask4_2415_33" style="mask-type:luminance" maskUnits="userSpaceOnUse" x="80" y="7" width="71" height="62">
<path d="M143.091 13.8792L143.087 13.8925C139.892 11.5632 135.887 10.3038 131.63 10.6026C129.08 10.7817 126.696 11.5025 124.586 12.6425C122.061 9.25483 117.918 7.18208 113.385 7.50022C109.026 7.8062 105.33 10.2523 103.253 13.7374C101.277 13.1374 99.1635 12.8816 96.9808 13.0348C92.7302 13.3332 88.9447 15.1346 86.1092 17.8807C86.1092 17.8807 77.156 25.5529 81.9556 38.4317C81.9837 38.5077 82.0117 38.582 82.0415 38.6578C82.0615 38.7116 82.0798 38.7639 82.1014 38.816C88.1688 54.3866 118.259 68.1477 118.259 68.1477C118.259 68.1477 146.156 50.3033 149.972 34.0292L149.986 34.0492C153.229 20.351 143.091 13.8792 143.091 13.8792Z" fill="white"/>
</mask>
<g mask="url(#mask4_2415_33)">
<path d="M102.772 55.9411C102.085 55.3806 99.4494 56.7603 99.1268 56.546C98.8008 56.3302 96.1898 50.2197 94.9 47.1691C93.9313 47.927 92.8529 48.2348 91.6798 47.7734C90.5335 47.323 89.4861 47.0524 88.53 46.8776C88.5891 47.2095 88.655 47.5685 88.725 47.9629C89.5596 52.5731 96.5641 60.4206 98.3148 61.4844C100.067 62.5497 103.46 56.4999 102.772 55.9411Z" fill="#FF7260"/>
<path d="M102.772 55.9411C102.352 55.6004 101.209 55.9794 100.307 56.2781L100.778 58.9073L99.5194 56.5071C99.5138 56.4961 99.5051 56.4886 99.4949 56.4828C99.4932 56.4813 99.4932 56.4813 99.4916 56.4814C99.4798 56.4757 99.4651 56.4751 99.4508 56.4794C99.4491 56.4795 99.4491 56.4795 99.4475 56.4796L98.1905 56.9088L98.7208 55.7709L98.7207 55.7693C98.7221 55.7659 98.7234 55.761 98.7231 55.7561C98.7245 55.7528 98.7242 55.7496 98.7256 55.7462L98.7255 55.7446C98.7252 55.7398 98.7233 55.7366 98.723 55.7318C98.7229 55.7302 98.7226 55.727 98.7209 55.7254C98.7188 55.7191 98.7151 55.7129 98.7098 55.7067C98.7063 55.7021 98.7011 55.6976 98.6943 55.6948C98.6926 55.6933 98.6926 55.6933 98.6909 55.6918C98.6909 55.6918 98.6909 55.6918 98.6893 55.692C98.6859 55.6906 98.6809 55.6893 98.6777 55.6895C98.6744 55.6881 98.6694 55.6869 98.6661 55.6871C98.6661 55.6871 98.6661 55.6871 98.6645 55.6872L96.2895 55.7208L97.6179 53.3873C97.6337 53.3586 97.6247 53.3219 97.5959 53.3061C97.5655 53.2903 97.5303 53.2993 97.5144 53.328L96.1513 55.7224L92.9976 55.7684C92.9651 55.7691 92.9377 55.7954 92.9384 55.8294C92.9384 55.8521 92.9512 55.8723 92.9715 55.8823C92.9799 55.8866 92.9898 55.8891 92.9995 55.8884L96.0833 55.844L94.81 58.0811C94.81 58.0811 94.8101 58.0827 94.8085 58.0828C94.8086 58.0845 94.8086 58.0845 94.8071 58.0862C94.8015 58.0996 94.7993 58.1143 94.8052 58.1285C94.8052 58.1285 94.8052 58.1285 94.8053 58.1301C94.8054 58.1318 94.807 58.1316 94.807 58.1316C94.8112 58.1443 94.8201 58.1551 94.832 58.1624L94.8337 58.1639C94.8405 58.1683 94.8487 58.1693 94.8553 58.1705C94.8569 58.1703 94.8569 58.1703 94.8586 58.1702C94.865 58.1698 94.8715 58.1693 94.8779 58.1673C94.8779 58.1673 94.8779 58.1673 94.8795 58.1671L97.9625 57.1147L96.6031 60.0267C96.5888 60.0553 96.6011 60.0901 96.6297 60.1043C96.6297 60.1043 96.6313 60.1042 96.6314 60.1058C96.655 60.1172 96.6822 60.1104 96.6989 60.093C97.3882 60.78 97.9583 61.274 98.3119 61.4895C100.067 62.5497 103.46 56.4999 102.772 55.9411ZM94.9931 58.0001L96.2229 55.8391L98.5736 55.8056L98.0348 56.9619L94.9931 58.0001ZM98.6327 61.053C98.6327 61.053 97.7944 59.357 96.7548 59.9852L98.1196 57.0582L99.4354 56.6087L100.752 59.1201C100.553 59.4539 99.7175 60.7431 98.6327 61.053Z" fill="#F6EEE8"/>
<path d="M83.9587 46.6628C83.9587 46.6628 87.5577 43.04 89.1799 42.5739C90.8022 42.1094 95.0183 43.0586 95.3951 43.5808C95.7702 44.1032 95.2856 45.082 94.632 45.136C94.632 45.136 95.3308 45.1454 95.3839 45.4614C95.4369 45.7759 94.2987 46.346 94.2987 46.346C94.2987 46.346 94.9579 46.4865 94.9905 46.7894C95.0232 47.0923 93.554 47.8139 93.554 47.8139C93.554 47.8139 93.7092 47.6374 93.7899 48.0457C93.8707 48.454 90.9695 50.7518 89.7853 50.8284C88.6012 50.905 82.4088 53.0978 83.9587 46.6628Z" fill="#AC412D"/>
<path d="M95.5165 44.1518C95.5165 44.1518 95.8148 45.9442 90.3496 45.3294" stroke="#111010" stroke-width="0.75" stroke-miterlimit="10" stroke-linecap="round" stroke-linejoin="round"/>
<path d="M95.3821 45.4599C95.3821 45.4599 95.4744 45.7781 94.2451 46.3936C93.0158 47.0091 90.3752 47.0841 90.3752 47.0841" stroke="#111010" stroke-width="0.75" stroke-miterlimit="10" stroke-linecap="round" stroke-linejoin="round"/>
<path d="M94.9112 46.6326C94.9112 46.6326 95.1125 46.9269 94.5615 47.2367C94.0104 47.5465 91.6264 48.7966 91.6264 48.7966" stroke="#111010" stroke-width="0.75" stroke-miterlimit="10" stroke-linecap="round" stroke-linejoin="round"/>
<path d="M84.6808 36.3411C84.6808 36.3411 85.6545 29.117 88.6569 29.4663C91.6593 29.8156 89.2275 37.595 89.2275 37.595L93.1441 40.8379L91.6651 43.2745C91.6651 43.2745 84.0964 41.3691 84.6808 36.3411Z" fill="#AC412D"/>
<path d="M93.144 40.8379C93.144 40.8379 94.8114 40.4822 95.7267 40.6566C96.6421 40.831 97.2635 41.8474 97.1592 42.0317C97.0534 42.216 95.6311 41.2639 95.2937 41.372C95.2937 41.372 97.1426 42.3283 96.9766 42.7912C96.8106 43.2542 95.2901 42.1564 94.4525 42.2087C94.4525 42.2087 96.4899 43.2994 96.2747 43.7333C96.1022 44.0815 93.8416 42.7548 93.8416 42.7548C93.8416 42.7548 95.6922 44.4301 95.384 44.6286C95.0741 44.8273 93.4087 43.6115 92.8455 43.5163C92.2823 43.4211 92.8532 45.6894 92.31 45.5311C91.7684 45.3727 91.665 43.2745 91.665 43.2745L93.144 40.8379Z" fill="#AC412D"/>
<path d="M96.308 41.9826C96.7068 42.2615 97.0528 42.5781 96.9765 42.7896C96.8105 43.2526 95.2901 42.1548 94.4524 42.2071C94.4524 42.2071 96.4898 43.2978 96.2746 43.7317C96.1021 44.0799 93.8415 42.7532 93.8415 42.7532C93.8415 42.7532 95.6921 44.4284 95.3839 44.627C95.074 44.8257 93.4086 43.6099 92.8454 43.5147C92.2822 43.4194 92.8531 45.6878 92.3099 45.5295C92.0557 45.4548 91.4407 43.6944 91.3445 43.1817C91.3445 43.1817 88.4177 42.194 86.7681 40.8552" stroke="#111010" stroke-width="0.75" stroke-miterlimit="10" stroke-linecap="round" stroke-linejoin="round"/>
<path d="M88.7752 29.2518C86.7838 28.9322 85.6031 31.3527 85.2019 32.3598C84.9008 32.428 84.6843 32.7061 84.7066 33.0228C84.7312 33.3733 85.0362 33.6392 85.3892 33.6144C85.5738 33.6015 85.7318 33.5109 85.8397 33.3783C85.8399 33.3815 85.8385 33.3849 85.8389 33.3897C85.8635 33.7403 86.1685 34.0062 86.5215 33.9814C86.7175 33.9676 86.886 33.8649 86.9927 33.7162C86.9922 33.7324 86.9901 33.7488 86.9913 33.765C87.0159 34.1155 87.3209 34.3814 87.6739 34.3567C87.8634 34.3434 88.0259 34.2475 88.1333 34.1085C88.1341 34.1198 88.1316 34.1314 88.1324 34.1427C88.157 34.4932 88.4621 34.7591 88.8151 34.7343C88.9479 34.725 89.0681 34.676 89.1636 34.5995C89.2438 34.8844 89.515 35.0846 89.8227 35.063C90.174 35.0383 90.4407 34.7339 90.416 34.3817C90.4083 34.2719 90.3703 34.1723 90.3154 34.0852C90.4463 33.3764 91.0431 29.6154 88.7752 29.2518Z" fill="#FF7260"/>
<path d="M89.8225 35.0614C90.1739 35.0367 90.4405 34.7323 90.4158 34.3801C90.4081 34.2703 90.3702 34.1706 90.3153 34.0836C90.4162 33.5505 90.7782 31.2898 89.9848 30.0484" stroke="#111010" stroke-width="0.75" stroke-miterlimit="10" stroke-linecap="round" stroke-linejoin="round"/>
<path d="M91.0776 28.9701C91.0858 28.8559 91.0136 28.7538 90.9101 28.7172C91.0038 28.6603 91.0527 28.5465 91.0221 28.435C90.9915 28.3235 90.8889 28.2528 90.7799 28.2524C90.8487 28.1664 90.8564 28.0441 90.7912 27.9496C90.7243 27.8553 90.6049 27.8231 90.5017 27.8596C90.5384 27.7563 90.504 27.637 90.4098 27.5705C90.3157 27.5041 90.191 27.5129 90.1063 27.5821L90.1062 27.5805C90.1639 27.5213 90.1905 27.4366 90.1733 27.3534C90.2712 27.4033 90.3936 27.3866 90.4723 27.3016C90.5509 27.2165 90.5602 27.0941 90.5032 27.0007C90.6117 27.0158 90.7215 26.9578 90.7678 26.8522C90.8141 26.7467 90.7797 26.6274 90.6952 26.5586C90.8026 26.5365 90.8873 26.4445 90.8955 26.3303C90.9038 26.2161 90.8315 26.114 90.7281 26.0774C90.8217 26.0205 90.8707 25.9067 90.8401 25.7952C90.8095 25.6838 90.7069 25.613 90.5978 25.6126C90.6666 25.5266 90.6743 25.4043 90.6091 25.3098C90.5423 25.2155 90.4229 25.1833 90.3197 25.2198C90.3563 25.1165 90.3219 24.9972 90.2278 24.9308C90.1336 24.8643 90.0089 24.8731 89.9243 24.9423C89.9247 24.8319 89.8525 24.7315 89.7413 24.7003C89.6301 24.6691 89.5165 24.7193 89.4596 24.8126C89.423 24.7097 89.3204 24.6389 89.2055 24.647C89.1456 24.6512 89.0936 24.676 89.0524 24.7146C89.0021 24.6937 88.943 24.6865 88.8856 24.7035C88.8281 24.7189 88.7818 24.7547 88.7492 24.8008C88.6948 24.79 88.6366 24.7957 88.5833 24.8238C88.4812 24.8764 88.4306 24.9904 88.4544 25.0975C88.3565 25.0475 88.234 25.0642 88.1553 25.1493C88.0767 25.2343 88.0674 25.3568 88.1244 25.4502C88.0159 25.435 87.9061 25.4931 87.8598 25.5986C87.8135 25.7041 87.8479 25.8235 87.9325 25.8922C87.825 25.9143 87.7404 26.0063 87.7321 26.1205C87.7238 26.2348 87.7961 26.3368 87.8996 26.3734C87.8059 26.4303 87.7569 26.5441 87.7876 26.6556C87.8182 26.7671 87.9208 26.8378 88.0298 26.8383C87.961 26.9243 87.9533 27.0466 88.0185 27.141C88.0854 27.2353 88.2048 27.2675 88.308 27.2311C88.2713 27.3343 88.3057 27.4536 88.3999 27.5201C88.494 27.5865 88.6187 27.5778 88.7034 27.5085L88.7035 27.5101C88.6458 27.5694 88.6192 27.654 88.6364 27.7372C88.5385 27.6873 88.416 27.704 88.3374 27.7891C88.2587 27.8741 88.2494 27.9965 88.3064 28.0899C88.198 28.0748 88.0881 28.1329 88.0419 28.2384C87.9956 28.3439 88.03 28.4632 88.1145 28.532C88.0071 28.5541 87.9224 28.6461 87.9141 28.7603C87.9059 28.8745 87.9781 28.9766 88.0816 29.0132C87.988 29.0701 87.939 29.1839 87.9696 29.2954C88.0002 29.4069 88.1028 29.4776 88.2119 29.4781C88.143 29.5641 88.1354 29.6863 88.2006 29.7808C88.2674 29.8751 88.3868 29.9073 88.49 29.8709C88.4533 29.9741 88.4878 30.0934 88.5819 30.1599C88.6761 30.2263 88.8008 30.2176 88.8854 30.1483C88.8849 30.1873 88.8972 30.2238 88.9142 30.2567C88.8435 30.3168 88.8093 30.4085 88.8286 30.4981C88.7307 30.4481 88.6082 30.4648 88.5296 30.5499C88.4509 30.635 88.4416 30.7574 88.4986 30.8508C88.3901 30.8357 88.2803 30.8937 88.234 30.9992C88.1877 31.1047 88.2221 31.2241 88.3067 31.2928C88.1992 31.315 88.1146 31.4069 88.1063 31.5212C88.0981 31.6354 88.1703 31.7374 88.2738 31.774C88.1801 31.8309 88.1312 31.9447 88.1618 32.0562C88.1924 32.1677 88.295 32.2384 88.404 32.2389C88.3352 32.3249 88.3275 32.4472 88.3927 32.5416C88.4596 32.636 88.579 32.6682 88.6822 32.6317C88.6455 32.7349 88.6799 32.8543 88.7741 32.9207C88.8682 32.9871 88.9929 32.9784 89.0776 32.9091C89.078 32.9854 89.1138 33.0543 89.1707 33.1006C89.166 33.1026 89.1611 33.1029 89.158 33.1048C89.0559 33.1574 89.0054 33.2713 89.0291 33.3784C88.9313 33.3285 88.8088 33.3452 88.7301 33.4303C88.6515 33.5153 88.6422 33.6377 88.6992 33.7311C88.5907 33.716 88.4809 33.7741 88.4346 33.8796C88.3883 33.9851 88.4227 34.1044 88.5073 34.1732C88.3998 34.1953 88.3151 34.2873 88.3069 34.4015C88.2986 34.5157 88.3709 34.6178 88.4743 34.6544C88.3807 34.7113 88.3317 34.8251 88.3623 34.9366C88.3929 35.0481 88.4955 35.1188 88.6046 35.1193C88.5358 35.2053 88.5281 35.3275 88.5933 35.422C88.6601 35.5163 88.7795 35.5485 88.8828 35.5121C88.8461 35.6153 88.8805 35.7346 88.9746 35.8011C89.0688 35.8675 89.1935 35.8588 89.2781 35.7895C89.2777 35.8999 89.3499 36.0004 89.4611 36.0315C89.5723 36.0627 89.6859 36.0125 89.7429 35.9192C89.7794 36.0222 89.882 36.0929 89.9969 36.0848C90.0569 36.0806 90.1088 36.0559 90.15 36.0173C90.2003 36.0381 90.2594 36.0453 90.3168 36.0283C90.3743 36.0129 90.4206 35.9772 90.4532 35.931C90.5076 35.9418 90.5658 35.9361 90.6192 35.908C90.7212 35.8554 90.7718 35.7415 90.748 35.6344C90.8459 35.6843 90.9684 35.6676 91.0471 35.5825C91.1257 35.4975 91.135 35.3751 91.078 35.2817C91.1865 35.2968 91.2963 35.2388 91.3426 35.1332C91.3889 35.0277 91.3545 34.9084 91.2699 34.8396C91.3774 34.8175 91.4621 34.7255 91.4703 34.6113C91.4786 34.4971 91.4063 34.395 91.3029 34.3584C91.3965 34.3015 91.4455 34.1877 91.4149 34.0762C91.3843 33.9647 91.2817 33.894 91.1726 33.8936C91.2414 33.8076 91.2491 33.6853 91.1839 33.5908C91.1171 33.4965 90.9976 33.4643 90.8944 33.5007C90.9311 33.3975 90.8967 33.2782 90.8025 33.2117C90.7084 33.1453 90.5837 33.1541 90.4991 33.2233C90.4986 33.147 90.4628 33.0781 90.4059 33.0318C90.4106 33.0298 90.4155 33.0295 90.4186 33.0277C90.5207 32.975 90.5713 32.8611 90.5475 32.754C90.6454 32.804 90.7679 32.7872 90.8465 32.7022C90.9252 32.6171 90.9345 32.4947 90.8775 32.4013C90.9859 32.4164 91.0958 32.3584 91.142 32.2529C91.1883 32.1473 91.1539 32.028 91.0694 31.9593C91.1768 31.9371 91.2615 31.8451 91.2698 31.7309C91.278 31.6167 91.2058 31.5146 91.1023 31.4781C91.1959 31.4212 91.2449 31.3073 91.2143 31.1959C91.1837 31.0844 91.0811 31.0136 90.972 31.0132C91.0409 30.9272 91.0485 30.8049 90.9833 30.7104C90.9165 30.6161 90.7971 30.5839 90.6939 30.6204C90.7306 30.5172 90.6961 30.3978 90.602 30.3314C90.5078 30.2649 90.3831 30.2737 90.2985 30.3429C90.299 30.3039 90.2867 30.2675 90.2697 30.2346C90.3404 30.1744 90.3746 30.0827 90.3553 29.9932C90.4532 30.0431 90.5757 30.0264 90.6543 29.9413C90.733 29.8563 90.7423 29.7339 90.6853 29.6405C90.7938 29.6556 90.9036 29.5976 90.9499 29.492C90.9962 29.3865 90.9618 29.2672 90.8772 29.1984C90.9862 29.1746 91.071 29.0842 91.0776 28.9701Z" fill="#111010"/>
<path d="M89.4251 27.1721L89.4712 27.2501C89.4843 27.2735 89.5098 27.2896 89.5376 27.2909L89.6275 27.2975C89.6586 27.3002 89.6743 27.3381 89.6532 27.3623L89.5929 27.4298C89.5748 27.4506 89.567 27.4787 89.5737 27.5042L89.5945 27.5921C89.6015 27.6224 89.5708 27.6489 89.5423 27.6363L89.4584 27.6C89.4332 27.5888 89.404 27.5908 89.3806 27.6055L89.3026 27.6531C89.2761 27.6696 89.2404 27.6478 89.2447 27.6166L89.2531 27.5268C89.256 27.4989 89.2444 27.4722 89.2237 27.4558L89.1545 27.3973C89.1302 27.3763 89.1405 27.3366 89.1709 27.3296L89.259 27.3104C89.2863 27.3053 89.3078 27.2859 89.319 27.2608L89.3538 27.1771C89.368 27.1469 89.4085 27.1441 89.4251 27.1721Z" fill="#FADB81"/>
<path d="M88.8486 27.3051L88.8764 27.3535C88.8855 27.3675 88.9009 27.3778 88.9172 27.3783L88.9728 27.3825C88.9925 27.3843 89.0023 27.408 88.9886 27.4219L88.9508 27.4636C88.9403 27.4757 88.9351 27.4939 88.9394 27.5098L88.953 27.564C88.9576 27.5832 88.9376 27.5992 88.9207 27.5907L88.8687 27.5683C88.8536 27.5613 88.8357 27.5625 88.8201 27.5718L88.7717 27.6011C88.7546 27.6121 88.7341 27.5989 88.736 27.5793L88.7419 27.5237C88.744 27.5073 88.7363 27.49 88.7241 27.4795L88.6809 27.4435C88.6655 27.4316 88.6718 27.4068 88.6911 27.4022L88.7455 27.3903C88.7615 27.3859 88.7754 27.3752 88.7825 27.3601L88.8033 27.3083C88.8133 27.2898 88.8376 27.2881 88.8486 27.3051Z" fill="#FF7260"/>
<path d="M89.9626 27.2269L89.9904 27.2753C89.9995 27.2893 90.0149 27.2996 90.0312 27.3001L90.0868 27.3043C90.1065 27.3061 90.1163 27.3298 90.1026 27.3437L90.0648 27.3854C90.0543 27.3975 90.0491 27.4157 90.0534 27.4316L90.067 27.4858C90.0716 27.505 90.0516 27.521 90.0347 27.5125L89.9827 27.4901C89.9676 27.4831 89.9498 27.4843 89.9341 27.4936L89.8857 27.5229C89.8686 27.5339 89.8482 27.5207 89.85 27.5011L89.8559 27.4455C89.858 27.4291 89.8503 27.4118 89.8382 27.4013L89.7949 27.3653C89.7795 27.3534 89.7859 27.3286 89.8051 27.324L89.8596 27.3121C89.8755 27.3077 89.8894 27.297 89.8965 27.2819L89.9173 27.2301C89.9274 27.2116 89.9533 27.2097 89.9626 27.2269Z" fill="#FF7260"/>
<path d="M89.6209 29.9619L89.6671 30.0399C89.6801 30.0633 89.7056 30.0794 89.7334 30.0807L89.8234 30.0873C89.8545 30.09 89.8701 30.1279 89.8491 30.1521L89.7887 30.2196C89.7706 30.2404 89.7628 30.2685 89.7695 30.294L89.7903 30.3819C89.7973 30.4122 89.7667 30.4387 89.7381 30.4261L89.6542 30.3898C89.629 30.3786 89.5999 30.3806 89.5765 30.3953L89.4985 30.4429C89.472 30.4594 89.4362 30.4376 89.4406 30.4064L89.4489 30.3165C89.4518 30.2887 89.4402 30.262 89.4195 30.2456L89.3503 30.1871C89.3261 30.1661 89.3363 30.1264 89.3667 30.1194L89.4549 30.1002C89.4822 30.0951 89.5036 30.0757 89.5149 30.0506L89.5497 29.9669C89.5639 29.9383 89.6044 29.9355 89.6209 29.9619Z" fill="#FADB81"/>
<path d="M89.0445 30.0966L89.0723 30.1449C89.0814 30.1589 89.0968 30.1692 89.1131 30.1697L89.1687 30.1739C89.1884 30.1757 89.1982 30.1994 89.1845 30.2133L89.1468 30.255C89.1362 30.2671 89.131 30.2853 89.1354 30.3012L89.1489 30.3555C89.1535 30.3746 89.1335 30.3906 89.1166 30.3821L89.0646 30.3597C89.0495 30.3527 89.0317 30.3539 89.016 30.3632L88.9677 30.3925C88.9505 30.4035 88.9301 30.3903 88.9319 30.3707L88.9378 30.3151C88.9399 30.2987 88.9322 30.2814 88.9201 30.2709L88.8769 30.2349C88.8613 30.2214 88.8678 30.1982 88.887 30.1936L88.9415 30.1817C88.9575 30.179 88.9713 30.1666 88.9784 30.1515L88.9992 30.0997C89.0093 30.0812 89.0335 30.0795 89.0445 30.0966Z" fill="#FF7260"/>
<path d="M90.1585 30.0184L90.1863 30.0667C90.1954 30.0807 90.2108 30.091 90.2271 30.0915L90.2827 30.0957C90.3024 30.0975 90.3122 30.1212 90.2985 30.1352L90.2608 30.1768C90.2502 30.1889 90.245 30.2071 90.2494 30.223L90.2629 30.2773C90.2675 30.2964 90.2475 30.3124 90.2306 30.3039L90.1786 30.2816C90.1635 30.2745 90.1457 30.2758 90.1301 30.285L90.0817 30.3143C90.0645 30.3253 90.0441 30.3121 90.046 30.2925L90.0518 30.2369C90.0539 30.2205 90.0462 30.2032 90.0341 30.1927L89.9909 30.1567C89.9753 30.1432 89.9818 30.12 90.001 30.1155L90.0555 30.1035C90.0716 30.1008 90.0853 30.0884 90.0924 30.0733L90.1132 30.0215C90.1233 30.003 90.1492 30.0012 90.1585 30.0184Z" fill="#FF7260"/>
<path d="M89.8198 32.797L89.8659 32.8749C89.879 32.8983 89.9045 32.9144 89.9322 32.9157L90.0222 32.9224C90.0533 32.9251 90.069 32.9629 90.0479 32.9871L89.9876 33.0547C89.9695 33.0754 89.9617 33.1036 89.9684 33.1291L89.9892 33.2169C89.9962 33.2472 89.9655 33.2737 89.937 33.2611L89.8531 33.2248C89.8279 33.2136 89.7987 33.2156 89.7753 33.2303L89.6973 33.278C89.6708 33.2944 89.6351 33.2726 89.6394 33.2414L89.6478 33.1516C89.6507 33.1238 89.639 33.097 89.6184 33.0806L89.5492 33.0221C89.5249 33.0011 89.5351 32.9614 89.5656 32.9544L89.6537 32.9352C89.681 32.9301 89.7024 32.9107 89.7137 32.8856L89.7485 32.802C89.7628 32.7734 89.8033 32.7705 89.8198 32.797Z" fill="#FADB81"/>
<path d="M89.2435 32.9316L89.2713 32.9799C89.2804 32.9939 89.2957 33.0042 89.312 33.0047L89.3677 33.0089C89.3873 33.0108 89.3971 33.0344 89.3835 33.0484L89.3457 33.09C89.3352 33.1021 89.3299 33.1203 89.3343 33.1362L89.3479 33.1905C89.3525 33.2096 89.3324 33.2256 89.3156 33.2171L89.2636 33.1948C89.2484 33.1877 89.2306 33.189 89.215 33.1982L89.1666 33.2275C89.1495 33.2385 89.129 33.2253 89.1309 33.2057L89.1368 33.1501C89.1389 33.1337 89.1311 33.1164 89.119 33.1059L89.0774 33.0698C89.0618 33.0563 89.0683 33.0332 89.0875 33.0286L89.142 33.0166C89.158 33.0122 89.1719 33.0015 89.179 32.9864L89.1997 32.9346C89.2082 32.9162 89.2325 32.9145 89.2435 32.9316Z" fill="#FF7260"/>
<path d="M90.3575 32.8534L90.3853 32.9018C90.3944 32.9157 90.4098 32.926 90.4261 32.9265L90.4817 32.9307C90.5013 32.9326 90.5111 32.9562 90.4975 32.9702L90.4597 33.0118C90.4492 33.0239 90.4439 33.0421 90.4483 33.058L90.4619 33.1123C90.4665 33.1314 90.4465 33.1475 90.4296 33.1389L90.3776 33.1166C90.3624 33.1095 90.3446 33.1108 90.329 33.12L90.2806 33.1494C90.2635 33.1603 90.243 33.1471 90.2449 33.1275L90.2508 33.0719C90.2529 33.0555 90.2451 33.0382 90.233 33.0277L90.1914 32.9917C90.1758 32.9781 90.1823 32.955 90.2016 32.9504L90.256 32.9384C90.272 32.9341 90.2859 32.9233 90.293 32.9082L90.3137 32.8564C90.3222 32.838 90.3481 32.8362 90.3575 32.8534Z" fill="#FF7260"/>
<path d="M94.6498 27.8412C96.2758 27.0211 96.9279 25.0415 96.1065 23.4197C95.285 21.7978 93.3009 21.1478 91.6749 21.9679C90.049 22.788 89.3968 24.7676 90.2183 26.3894C91.0397 28.0113 93.0238 28.6613 94.6498 27.8412Z" fill="#AC412D"/>
<path d="M89.3039 25.9566C89.7162 25.9277 90.027 25.5708 89.9981 25.1595C89.9693 24.7483 89.6116 24.4383 89.1994 24.4672C88.7871 24.4962 88.4763 24.8531 88.5052 25.2643C88.534 25.6756 88.8916 25.9856 89.3039 25.9566Z" fill="#AC412D"/>
<path d="M88.9629 24.7387L89.52 25.6509" stroke="#111010" stroke-width="0.75" stroke-miterlimit="10" stroke-linecap="round" stroke-linejoin="round"/>
<path d="M93.185 21.8547C93.185 21.8547 91.8345 25.1719 89.8375 24.7487L89.6014 23.6809L91.0398 21.6855L93.839 21.4354C93.839 21.4354 96.1747 21.8608 96.4537 24.0506C96.4537 24.0506 94.7377 23.9454 93.185 21.8547Z" fill="#111010"/>
<path d="M94.728 25.9395C94.7855 26.7585 94.1666 27.4692 93.3456 27.5268C92.5246 27.5844 91.8125 26.9672 91.755 26.1482" fill="#F6EEE8"/>
<path d="M92.9012 24.6051C93.1636 24.5867 93.3905 24.7834 93.4089 25.0451C93.4273 25.3068 93.23 25.5333 92.9677 25.5517" stroke="#111010" stroke-width="0.75" stroke-miterlimit="10" stroke-linecap="round" stroke-linejoin="round"/>
<path d="M91.5787 24.8879C91.5888 25.0317 91.4802 25.1545 91.3377 25.1645C91.1936 25.1747 91.0705 25.0664 91.0605 24.9243C91.0504 24.7805 91.1589 24.6576 91.3014 24.6476C91.4456 24.6375 91.5686 24.7441 91.5787 24.8879Z" fill="#111010"/>
<path d="M95.2333 24.6313C95.2434 24.7751 95.1349 24.898 94.9924 24.908C94.8483 24.9181 94.7251 24.8099 94.7152 24.6677C94.7051 24.5239 94.8136 24.4011 94.9561 24.3911C95.1002 24.381 95.2232 24.4876 95.2333 24.6313Z" fill="#111010"/>
<path d="M111.421 44.0386C110.534 44.0132 109.288 46.7094 108.903 46.7365C108.529 46.7627 103.142 43.7562 100.163 42.0741C100.144 43.0624 99.9784 44.0821 99.5925 45.0978C99.1104 45.88 98.4178 46.5374 97.4508 47.042C97.2609 47.1414 97.0769 47.2322 96.8927 47.3214C101.203 49.8403 109.479 51.3421 111.279 51.1443C113.317 50.9217 112.308 44.064 111.421 44.0386Z" fill="#FF7260"/>
<path d="M111.421 44.0386C110.88 44.023 110.206 45.02 109.674 45.8057L111.655 47.6033L109.19 46.4679C109.178 46.4623 109.167 46.4631 109.156 46.4639C109.154 46.464 109.152 46.4641 109.151 46.4642C109.138 46.4667 109.126 46.4757 109.117 46.4861C109.117 46.4877 109.115 46.4862 109.113 46.4879L108.381 47.5929L108.106 46.3687C108.106 46.3687 108.106 46.3687 108.106 46.3671C108.105 46.3623 108.102 46.3593 108.1 46.3561C108.098 46.353 108.098 46.3498 108.095 46.3468L108.095 46.3452C108.091 46.3422 108.088 46.3392 108.084 46.3362C108.082 46.3347 108.081 46.3332 108.079 46.3317C108.072 46.3273 108.065 46.3245 108.059 46.3233C108.052 46.3222 108.046 46.3226 108.039 46.3231C108.038 46.3232 108.036 46.3233 108.034 46.3234C108.034 46.3234 108.034 46.3234 108.033 46.3235C108.03 46.3238 108.025 46.3273 108.022 46.3292C108.019 46.331 108.014 46.333 108.011 46.3348L108.009 46.3349L106.147 47.8082L105.773 45.151C105.769 45.1188 105.738 45.095 105.706 45.1005C105.672 45.1061 105.65 45.1353 105.656 45.1674L106.039 47.8937L103.566 49.8497C103.54 49.8694 103.536 49.907 103.556 49.9332C103.57 49.9517 103.592 49.9583 103.614 49.9551C103.624 49.9528 103.632 49.949 103.641 49.9435L106.058 48.0319L106.416 50.5798C106.416 50.5814 106.416 50.5814 106.416 50.5814C106.417 50.583 106.417 50.583 106.418 50.5845C106.423 50.5989 106.43 50.6113 106.442 50.6186C106.442 50.6186 106.442 50.6186 106.442 50.6202L106.444 50.6201C106.455 50.6274 106.469 50.6313 106.483 50.6287C106.485 50.6286 106.485 50.6286 106.486 50.6285C106.494 50.6263 106.501 50.6242 106.509 50.6204C106.51 50.6203 106.51 50.6187 106.512 50.6186C106.516 50.615 106.523 50.6097 106.525 50.6046C106.525 50.6046 106.525 50.6046 106.527 50.6045L108.327 47.8954L109.03 51.0294C109.037 51.0614 109.068 51.0804 109.099 51.075L109.1 51.0749C109.126 51.0698 109.142 51.0476 109.146 51.0246C110.111 51.15 110.864 51.1945 111.278 51.1493C113.317 50.9217 112.308 44.064 111.421 44.0386ZM106.515 50.4041L106.169 47.943L108.012 46.4857L108.291 47.7291L106.515 50.4041ZM111.266 50.6079C111.266 50.6079 109.565 49.7744 109.124 50.9044L108.416 47.7544L109.185 46.5966L111.764 47.784C111.811 48.1736 111.936 49.7037 111.266 50.6079Z" fill="#F6EEE8"/>
</g>
</g>
<defs>
<clipPath id="clip0_2415_33">
<rect width="70.1766" height="63.5717" fill="white" transform="translate(79.0001 9.91387) rotate(-4.01523)"/>
</clipPath>
</defs>
</svg>
