<svg width="47" height="53" viewBox="0 0 47 53" fill="none" xmlns="http://www.w3.org/2000/svg">
<path d="M46.1652 36.2567L45.4646 37.8799L44.1836 39.7604L42.7759 41.5091L41.3463 43.019L39.6393 44.6932L38.485 45.7361L37.0081 47.0414L35.6173 48.1212L34.0979 49.2514L32.3365 50.4801L31.1951 51.2183L29.9015 51.95L29.264 52.2312L28.7311 52.4051L28.1843 52.4904L27.703 52.3648L27.2145 51.9983L26.8011 51.6768L26.306 51.0502L25.8132 50.3662L25.2662 49.407L24.8184 48.6481L24.5452 48.1345L24.3858 47.6939L24.3027 47.1619L24.3943 46.5119L24.6716 46.1054L27.2571 44.1919L30.0185 42.0238L32.8578 39.6277L35.1664 37.5415L36.849 35.8824L35.4658 36.4048L33.3727 37.2539L31.5161 38.0886L29.9406 38.834L28.7171 39.4338L25.971 40.8274L24.3691 41.6224L23.2698 42.1458L22.612 42.4415L22.2582 42.5762L21.8779 42.6127L21.471 42.5513L21.0842 42.328L20.6124 41.9248L19.9582 41.1525L18.8765 39.4592L18.4585 38.6729L18.2261 38.1301L18.1569 37.6866L18.0704 37.1323L18.0324 36.8886L18.162 36.4823L18.4593 35.9135L18.968 35.2438L20.3558 33.7327L23.2754 30.9042L22.1897 31.3689L20.1343 32.1664L18.5626 32.7183L17.4994 32.9636L16.8139 33.0818L16.3688 33.14L15.9268 33.0726L15.4653 32.9516L15.0246 32.7479L14.6494 32.4545L14.2971 32.0893L13.9165 31.615L13.5059 31.0205L13.043 30.3094L12.6313 29.6356L12.2878 28.9625L11.9662 28.1383L11.8552 27.8641L11.782 27.3949L11.7353 27.0956L12.0252 25.824L12.1441 25.5671L12.4414 24.9983L12.7363 24.4867L13.1692 23.8401L12.5596 23.9352L11.6701 23.9833L11.4041 24.0248L10.5663 23.8943L10.0382 23.7837L8.87161 23.1483L8.4964 22.8549L8.10652 22.3933L7.90296 22.1072L7.45215 21.4736L6.95419 20.7564L6.51766 19.9958L5.78259 18.4868L5.65201 18.0871L5.58973 17.6879L5.53263 17.322L5.5347 16.7539L5.61132 15.9357L5.87986 15.1105L5.67181 15.0863L5.16218 14.95L4.31114 14.6626L3.96362 14.5467L3.18023 13.965L2.30427 13.2273L1.48906 12.151L0.873777 11.1911L0.288909 10.1355L0.0777307 9.50994L-9.04331e-05 9.01121L0.0117648 8.57795L0.194956 8.15206L0.524523 7.86225L1.00076 7.64027L1.48001 7.65621L1.83853 7.77045L2.26558 8.03325L2.6656 8.41349L2.97595 8.72828L3.54307 9.01457L4.61412 9.25634L5.85111 9.32454L7.59243 9.13229L9.05044 8.87068L10.3597 8.52998L11.4159 7.51362L13.1236 5.94134L15.8859 3.7049L19.0116 1.61635L20.1413 0.9974L21.3463 0.423327L22.4602 0.0677469L23.4035 2.06233e-05L23.7476 0.0939915L24.0705 0.270732L24.4107 0.558337L24.7688 0.888506L25.1792 1.33533L25.5341 1.79084L25.8848 2.29234L26.2005 2.78805L26.6808 3.61004L26.9395 4.10337L27.147 4.55934L27.2547 5.03088L27.2498 5.50843L27.1092 5.91642L26.9359 6.26131C26.9359 6.26131 26.7974 6.46468 26.5196 6.72356C26.2422 6.98271 25.7884 7.34853 25.7884 7.34853L24.803 8.09262L24.058 8.62902L23.1705 9.19891L22.2684 9.74858L21.4556 10.2161L20.6096 10.6888L19.7136 11.2034L18.9961 11.5537L18.7865 11.6659L17.1842 13.04L15.8393 14.3172L14.7099 15.4473L13.7958 16.4303L13.0103 17.2908L12.767 17.6241L12.9997 17.5878L13.9469 17.3264L16.4325 16.5184L19.5021 15.2333L22.1103 13.9747L24.1541 12.8837L26.1058 11.7842L27.4905 10.762L28.8293 9.88327L29.1964 9.68959L29.4037 9.63441L29.6622 9.61691L29.9513 9.65126L30.2175 9.75739L30.4871 9.8855L30.8802 10.2215L31.3453 10.728L31.8543 11.4435L32.3771 12.2476L33.0096 13.3183L33.2016 13.6744L33.3105 14.0093L33.3974 14.3477L33.4493 14.6803L33.3955 15.0635L33.2998 15.3963L33.1717 15.6659L32.9513 15.9274L32.0158 16.8455L30.7439 18.0091L29.3554 19.225L28.0545 20.3477L27.0175 21.2703L26.0182 22.1418L24.9386 23.0823L24.1657 23.8048L25.5162 23.2193L30.5682 20.8868L34.1398 19.3985L34.669 19.2252L35.2129 19.0721L35.6317 19.0634L36.107 19.1256L36.3793 19.1967L36.7424 19.4125L37.261 19.8994L37.9999 20.8515L38.4617 21.4834L39.31 22.918L39.6109 23.6091L39.7745 24.3669L39.8065 25.0092L39.7676 25.197L39.363 26.1687L38.8181 26.9692L38.193 27.8388L37.1703 28.9976L37.0784 29.1368L37.4655 28.9969L38.3829 28.763L39.1946 28.5798L40.1144 28.4362L40.6499 28.3755L41.594 28.3871L41.8073 28.4446L42.4647 28.728L42.9216 28.9633L43.247 29.2304L43.5281 29.5044L43.9437 29.9845L44.3824 30.5405L44.8925 31.3353L45.3716 32.078L45.8552 33.0577L46.164 33.8723L46.3108 34.3037L46.3444 34.8093L46.3016 35.1908L46.2133 35.7154L46.1652 36.2567Z" fill="url(#paint0_linear_1_109)"/>
<defs>
<linearGradient id="paint0_linear_1_109" x1="14.0366" y1="54.6775" x2="27.0887" y2="2.27808" gradientUnits="userSpaceOnUse">
<stop stop-color="#EC3C28"/>
<stop offset="0.514151" stop-color="#ED3F2A"/>
<stop offset="1" stop-color="#C71B0A"/>
</linearGradient>
</defs>
</svg>
